<?xml version="1.0" encoding="UTF-8"?>
<svg xmlns="http://www.w3.org/2000/svg" xmlns:xlink="http://www.w3.org/1999/xlink" width="20px" height="px" viewBox="0 0 20 20" version="1.1">
<g id="surface1">
<path style=" stroke:none;fill-rule:nonzero;fill:rgb(100%,100%,100%);fill-opacity:1;" d="M 4.988281 6.003906 C 5.5625 8.199219 7.117188 11.570312 8.488281 14.542969 C 9.039062 15.742188 9.566406 16.882812 9.984375 17.855469 C 10.214844 17.328125 10.539062 16.613281 10.902344 15.808594 C 12.488281 12.300781 15.144531 6.425781 15.144531 4.953125 C 15.144531 2.414062 12.835938 0.351562 10 0.351562 C 7.164062 0.351562 4.855469 2.414062 4.855469 4.953125 C 4.855469 5.308594 4.898438 5.660156 4.988281 6.003906 Z M 9.984375 18.476562 C 9.914062 18.476562 9.851562 18.433594 9.824219 18.367188 C 9.382812 17.320312 8.792969 16.042969 8.171875 14.691406 C 6.792969 11.703125 5.234375 8.316406 4.652344 6.097656 C 4.652344 6.09375 4.648438 6.09375 4.648438 6.09375 C 4.554688 5.722656 4.503906 5.339844 4.503906 4.953125 C 4.503906 2.222656 6.96875 0 10 0 C 13.03125 0 15.496094 2.222656 15.496094 4.953125 C 15.496094 6.5 12.925781 12.1875 11.222656 15.953125 C 10.765625 16.96875 10.367188 17.84375 10.148438 18.367188 C 10.121094 18.433594 10.054688 18.476562 9.984375 18.476562 Z M 9.984375 18.476562 "/>
<path style=" stroke:none;fill-rule:nonzero;fill:rgb(100%,100%,100%);fill-opacity:1;" d="M 10 2.59375 C 8.699219 2.59375 7.640625 3.648438 7.640625 4.949219 C 7.640625 6.25 8.699219 7.308594 10 7.308594 C 11.300781 7.308594 12.359375 6.25 12.359375 4.949219 C 12.359375 3.648438 11.300781 2.59375 10 2.59375 Z M 10 7.660156 C 8.507812 7.660156 7.292969 6.445312 7.292969 4.949219 C 7.292969 3.457031 8.507812 2.242188 10 2.242188 C 11.492188 2.242188 12.707031 3.457031 12.707031 4.949219 C 12.707031 6.445312 11.492188 7.660156 10 7.660156 Z M 10 7.660156 "/>
<path style=" stroke:none;fill-rule:nonzero;fill:rgb(100%,100%,100%);fill-opacity:1;" d="M 10 20 C 7.683594 20 5.863281 19.050781 5.863281 17.839844 C 5.863281 16.847656 7.085938 16.011719 8.90625 15.753906 C 9.003906 15.742188 9.089844 15.808594 9.105469 15.90625 C 9.117188 16 9.050781 16.089844 8.957031 16.101562 C 7.34375 16.328125 6.21875 17.042969 6.21875 17.839844 C 6.21875 18.820312 7.949219 19.648438 10 19.648438 C 12.050781 19.648438 13.78125 18.820312 13.78125 17.839844 C 13.78125 17.050781 12.621094 16.320312 11.019531 16.097656 C 10.921875 16.085938 10.855469 15.996094 10.871094 15.902344 C 10.882812 15.804688 10.96875 15.738281 11.066406 15.75 C 12.902344 16.003906 14.132812 16.84375 14.132812 17.839844 C 14.132812 19.050781 12.316406 20 10 20 Z M 10 20 "/>
</g>
</svg>
