<?xml version="1.0" encoding="UTF-8"?>
<svg xmlns="http://www.w3.org/2000/svg" xmlns:xlink="http://www.w3.org/1999/xlink" width="20px" height="14px" viewBox="0 0 20 14" version="1.1">
<g id="surface1">
<path style=" stroke:none;fill-rule:nonzero;fill:rgb(0%,0%,54.509804%);fill-opacity:1;" d="M 18.839844 0 L 1.160156 0 C 0.558594 0 0.0664062 0.496094 0.0664062 1.105469 L 0.0664062 12.890625 C 0.0664062 13.5 0.558594 13.996094 1.160156 13.996094 L 18.835938 13.996094 C 19.4375 13.996094 19.929688 13.496094 19.929688 12.890625 L 19.929688 1.105469 C 19.933594 0.496094 19.4375 0 18.839844 0 Z M 18.839844 0 "/>
<path style=" stroke:none;fill-rule:evenodd;fill:rgb(100%,100%,100%);fill-opacity:1;" d="M 5.851562 8.363281 L 6.214844 9.515625 L 7.332031 9.085938 L 6.671875 10.097656 L 7.699219 10.714844 L 6.507812 10.820312 L 6.675781 12.023438 L 5.851562 11.140625 L 5.023438 12.023438 L 5.1875 10.820312 L 3.996094 10.714844 L 5.027344 10.097656 L 4.363281 9.085938 L 5.484375 9.515625 Z M 5.851562 8.363281 "/>
<path style=" stroke:none;fill-rule:evenodd;fill:rgb(100%,100%,100%);fill-opacity:1;" d="M 15.597656 10.441406 L 15.773438 10.988281 L 16.304688 10.785156 L 15.992188 11.265625 L 16.480469 11.5625 L 15.914062 11.613281 L 15.992188 12.183594 L 15.597656 11.765625 L 15.207031 12.183594 L 15.28125 11.613281 L 14.71875 11.5625 L 15.207031 11.265625 L 14.890625 10.785156 L 15.421875 10.988281 Z M 15.597656 10.441406 "/>
<path style=" stroke:none;fill-rule:evenodd;fill:rgb(100%,100%,100%);fill-opacity:1;" d="M 15.597656 1.886719 L 15.773438 2.433594 L 16.304688 2.226562 L 15.992188 2.707031 L 16.480469 3.003906 L 15.914062 3.054688 L 15.992188 3.628906 L 15.597656 3.207031 L 15.207031 3.628906 L 15.28125 3.054688 L 14.71875 3.003906 L 15.207031 2.707031 L 14.890625 2.226562 L 15.421875 2.433594 Z M 15.597656 1.886719 "/>
<path style=" stroke:none;fill-rule:evenodd;fill:rgb(100%,100%,100%);fill-opacity:1;" d="M 13.113281 5.359375 L 13.289062 5.910156 L 13.820312 5.707031 L 13.503906 6.1875 L 13.996094 6.480469 L 13.429688 6.53125 L 13.503906 7.101562 L 13.113281 6.683594 L 12.71875 7.101562 L 12.800781 6.53125 L 12.230469 6.480469 L 12.71875 6.1875 L 12.40625 5.707031 L 12.941406 5.910156 Z M 13.113281 5.359375 "/>
<path style=" stroke:none;fill-rule:evenodd;fill:rgb(100%,100%,100%);fill-opacity:1;" d="M 18.414062 4.503906 L 18.589844 5.054688 L 19.121094 4.847656 L 18.804688 5.332031 L 19.292969 5.625 L 18.730469 5.675781 L 18.804688 6.246094 L 18.414062 5.828125 L 18.019531 6.246094 L 18.101562 5.675781 L 17.53125 5.625 L 18.019531 5.332031 L 17.707031 4.847656 L 18.242188 5.054688 Z M 18.414062 4.503906 "/>
<path style=" stroke:none;fill-rule:evenodd;fill:rgb(100%,100%,100%);fill-opacity:1;" d="M 16.867188 7.082031 L 17.003906 7.421875 L 17.367188 7.449219 L 17.089844 7.683594 L 17.175781 8.046875 L 16.867188 7.851562 L 16.554688 8.046875 L 16.644531 7.683594 L 16.363281 7.449219 L 16.730469 7.421875 Z M 16.867188 7.082031 "/>
<path style=" stroke:none;fill-rule:nonzero;fill:rgb(100%,100%,100%);fill-opacity:1;" d="M 0.152344 0.683594 L 10.089844 5.714844 L 11.351562 5.714844 L 11.351562 5.078125 L 1.332031 0 L 1.160156 0 C 0.707031 0 0.316406 0.28125 0.152344 0.683594 Z M 11.351562 0 L 11.351562 0.636719 L 1.332031 5.714844 L 0.0664062 5.714844 L 0.0664062 5.078125 L 10.089844 0 Z M 11.351562 0 "/>
<path style=" stroke:none;fill-rule:nonzero;fill:rgb(100%,100%,100%);fill-opacity:1;" d="M 4.769531 0 L 4.769531 5.714844 L 6.652344 5.714844 L 6.652344 0 Z M 0.0664062 1.90625 L 0.0664062 3.8125 L 11.351562 3.8125 L 11.351562 1.90625 Z M 0.0664062 1.90625 "/>
<path style=" stroke:none;fill-rule:nonzero;fill:rgb(100%,0%,0%);fill-opacity:1;" d="M 0.0664062 2.285156 L 0.0664062 3.429688 L 11.351562 3.429688 L 11.351562 2.285156 Z M 5.144531 0 L 5.144531 5.714844 L 6.277344 5.714844 L 6.277344 0 Z M 5.144531 0 "/>
<path style=" stroke:none;fill-rule:nonzero;fill:rgb(100%,0%,0%);fill-opacity:1;" d="M 0.0664062 5.714844 L 3.828125 3.808594 L 4.671875 3.808594 L 0.910156 5.714844 Z M 0.242188 0.515625 C 0.3125 0.402344 0.402344 0.300781 0.507812 0.222656 L 3.832031 1.90625 L 2.988281 1.90625 Z M 6.75 1.90625 L 10.511719 0 L 11.351562 0 L 7.589844 1.90625 Z M 11.351562 5.714844 L 7.589844 3.808594 L 8.429688 3.808594 L 11.347656 5.289062 L 11.347656 5.714844 Z M 11.351562 5.714844 "/>
</g>
</svg>
