<?xml version="1.0" encoding="UTF-8"?>
<svg xmlns="http://www.w3.org/2000/svg" xmlns:xlink="http://www.w3.org/1999/xlink" width="20px" height="20px" viewBox="0 0 20 20" version="1.1">
<g id="surface1">
<path style=" stroke:none;fill-rule:nonzero;fill:rgb(100%,0%,0%);fill-opacity:1;" d="M 19.96875 5.261719 C 19.90625 5.101562 19.753906 5 19.582031 5 L 17.917969 5 C 17.808594 5 17.707031 5.039062 17.628906 5.113281 L 10 12.34375 L 2.371094 5.113281 C 2.292969 5.039062 2.191406 5 2.082031 5 L 0.417969 5 C 0.246094 5 0.09375 5.101562 0.03125 5.261719 C -0.0351562 5.417969 0.00390625 5.601562 0.128906 5.71875 L 9.710938 14.882812 C 9.871094 15.039062 10.125 15.039062 10.289062 14.882812 L 19.871094 5.71875 C 19.996094 5.601562 20.035156 5.417969 19.96875 5.261719 Z M 19.96875 5.261719 "/>
</g>
</svg>
