<?xml version="1.0" encoding="UTF-8"?>
<svg xmlns="http://www.w3.org/2000/svg" xmlns:xlink="http://www.w3.org/1999/xlink" width="20px" height="px" viewBox="0 0 20 20" version="1.1">
<g id="surface1">
<path style=" stroke:none;fill-rule:nonzero;fill:rgb(100%,100%,100%);fill-opacity:1;" d="M 18.125 2.5 L 1.875 2.5 C 0.839844 2.5 0 3.339844 0 4.375 L 0 15.625 C 0 16.660156 0.839844 17.5 1.875 17.5 L 18.125 17.5 C 19.160156 17.5 20 16.660156 20 15.625 L 20 4.375 C 20 3.339844 19.160156 2.5 18.125 2.5 Z M 19.375 15.347656 L 13.464844 9.433594 L 19.375 5.667969 Z M 1.875 3.125 L 18.125 3.125 C 18.816406 3.125 19.375 3.6875 19.375 4.375 L 19.375 4.925781 L 10.769531 10.410156 C 10.304688 10.707031 9.710938 10.699219 9.253906 10.386719 L 0.625 4.523438 L 0.625 4.375 C 0.625 3.6875 1.183594 3.125 1.875 3.125 Z M 0.625 5.277344 L 6.621094 9.351562 L 0.625 15.347656 Z M 18.125 16.875 L 1.875 16.875 C 1.359375 16.875 0.917969 16.5625 0.726562 16.117188 L 7.136719 9.703125 L 8.90625 10.90625 C 9.242188 11.136719 9.636719 11.25 10.03125 11.25 C 10.402344 11.25 10.777344 11.148438 11.105469 10.9375 L 12.933594 9.773438 L 19.273438 16.117188 C 19.082031 16.5625 18.640625 16.875 18.125 16.875 Z M 18.125 16.875 "/>
</g>
</svg>
