<?xml version="1.0" encoding="UTF-8"?>
<svg xmlns="http://www.w3.org/2000/svg" xmlns:xlink="http://www.w3.org/1999/xlink" width="20px" height="px" viewBox="0 0 20 20" version="1.1">
<g id="surface1">
<path style=" stroke:none;fill-rule:nonzero;fill:rgb(100%,100%,100%);fill-opacity:1;" d="M 18.351562 0 L 4.320312 0 C 4.148438 0 4.007812 0.140625 4.007812 0.3125 C 4.007812 0.484375 4.148438 0.625 4.320312 0.625 L 18.351562 0.625 C 18.914062 0.625 19.375 1.085938 19.375 1.648438 L 19.375 18.351562 C 19.375 18.914062 18.914062 19.375 18.351562 19.375 L 12.652344 19.375 L 12.652344 15.34375 C 12.652344 15.171875 12.511719 15.03125 12.339844 15.03125 C 12.164062 15.03125 12.023438 15.171875 12.023438 15.34375 L 12.023438 19.375 L 9.980469 19.375 L 9.980469 12.003906 C 9.980469 11.832031 9.839844 11.691406 9.664062 11.691406 L 8.308594 11.691406 L 8.308594 9.644531 L 9.664062 9.644531 C 9.839844 9.644531 9.980469 9.503906 9.980469 9.332031 L 9.980469 7.328125 C 9.980469 5.289062 11.636719 3.632812 13.675781 3.632812 L 16.035156 3.632812 L 16.035156 5.679688 L 13.675781 5.679688 C 12.765625 5.679688 12.023438 6.417969 12.023438 7.328125 L 12.023438 9.332031 C 12.023438 9.503906 12.164062 9.644531 12.339844 9.644531 L 16.035156 9.644531 L 16.035156 11.691406 L 12.339844 11.691406 C 12.164062 11.691406 12.023438 11.832031 12.023438 12.003906 L 12.023438 14.007812 C 12.023438 14.179688 12.164062 14.320312 12.339844 14.320312 C 12.511719 14.320312 12.652344 14.179688 12.652344 14.007812 L 12.652344 12.316406 L 16.347656 12.316406 C 16.519531 12.316406 16.660156 12.175781 16.660156 12.003906 L 16.660156 9.332031 C 16.660156 9.160156 16.519531 9.019531 16.347656 9.019531 L 12.652344 9.019531 L 12.652344 7.328125 C 12.652344 6.765625 13.109375 6.304688 13.675781 6.304688 L 16.347656 6.304688 C 16.519531 6.304688 16.660156 6.164062 16.660156 5.992188 L 16.660156 3.320312 C 16.660156 3.148438 16.519531 3.007812 16.347656 3.007812 L 13.675781 3.007812 C 11.292969 3.007812 9.351562 4.945312 9.351562 7.328125 L 9.351562 9.019531 L 7.996094 9.019531 C 7.824219 9.019531 7.683594 9.160156 7.683594 9.332031 L 7.683594 12.003906 C 7.683594 12.175781 7.824219 12.316406 7.996094 12.316406 L 9.351562 12.316406 L 9.351562 19.375 L 1.648438 19.375 C 1.085938 19.375 0.625 18.914062 0.625 18.351562 L 0.625 1.648438 C 0.625 1.085938 1.085938 0.625 1.648438 0.625 L 2.984375 0.625 C 3.160156 0.625 3.296875 0.484375 3.296875 0.3125 C 3.296875 0.140625 3.160156 0 2.984375 0 L 1.648438 0 C 0.738281 0 0 0.738281 0 1.648438 L 0 18.351562 C 0 19.261719 0.738281 20 1.648438 20 L 18.351562 20 C 19.261719 20 20 19.261719 20 18.351562 L 20 1.648438 C 20 0.738281 19.261719 0 18.351562 0 Z M 18.351562 0 "/>
</g>
</svg>
