<?xml version="1.0" encoding="UTF-8"?>
<svg xmlns="http://www.w3.org/2000/svg" xmlns:xlink="http://www.w3.org/1999/xlink" width="20px" height="px" viewBox="0 0 20 20" version="1.1">
<g id="surface1">
<path style=" stroke:none;fill-rule:nonzero;fill:rgb(100%,100%,100%);fill-opacity:1;" d="M 16.957031 0 L 3.042969 0 C 1.367188 0 0 1.363281 0 3.042969 L 0 16.957031 C 0 18.636719 1.367188 20 3.042969 20 L 16.957031 20 C 18.632812 20 20 18.636719 20 16.957031 L 20 3.042969 C 20 1.363281 18.632812 0 16.957031 0 Z M 19.128906 16.957031 C 19.128906 18.15625 18.15625 19.128906 16.957031 19.128906 L 3.042969 19.128906 C 1.84375 19.128906 0.871094 18.15625 0.871094 16.957031 L 0.871094 8.695312 L 4.5 8.695312 C 4.492188 8.730469 4.488281 8.765625 4.480469 8.800781 C 4.449219 8.945312 4.425781 9.089844 4.40625 9.238281 C 4.398438 9.296875 4.386719 9.351562 4.382812 9.410156 C 4.363281 9.605469 4.347656 9.800781 4.347656 10 C 4.347656 13.117188 6.882812 15.652344 10 15.652344 C 13.117188 15.652344 15.652344 13.117188 15.652344 10 C 15.652344 9.800781 15.636719 9.605469 15.617188 9.410156 C 15.613281 9.351562 15.605469 9.296875 15.597656 9.238281 C 15.574219 9.089844 15.550781 8.945312 15.519531 8.796875 C 15.511719 8.761719 15.507812 8.730469 15.5 8.695312 L 19.128906 8.695312 Z M 5.21875 10 C 5.21875 9.449219 5.308594 8.914062 5.492188 8.40625 C 6.164062 6.5 7.976562 5.21875 10 5.21875 C 10.253906 5.21875 10.503906 5.238281 10.746094 5.277344 C 12.335938 5.527344 13.710938 6.570312 14.367188 8.058594 C 14.417969 8.171875 14.464844 8.285156 14.507812 8.40625 C 14.507812 8.40625 14.507812 8.40625 14.507812 8.410156 C 14.691406 8.914062 14.78125 9.449219 14.78125 10 C 14.78125 12.636719 12.636719 14.78125 10 14.78125 C 7.363281 14.78125 5.21875 12.636719 5.21875 10 Z M 19.128906 7.824219 L 15.214844 7.824219 C 15.207031 7.804688 15.195312 7.785156 15.1875 7.761719 C 15.160156 7.699219 15.132812 7.640625 15.105469 7.582031 C 15.070312 7.511719 15.039062 7.441406 15 7.371094 C 14.96875 7.3125 14.9375 7.257812 14.90625 7.199219 C 14.867188 7.132812 14.828125 7.066406 14.789062 7.003906 C 14.753906 6.945312 14.714844 6.890625 14.679688 6.835938 C 14.636719 6.773438 14.59375 6.710938 14.550781 6.652344 C 14.511719 6.597656 14.46875 6.542969 14.425781 6.492188 C 14.382812 6.433594 14.335938 6.375 14.285156 6.320312 C 14.242188 6.269531 14.199219 6.21875 14.152344 6.171875 C 14.101562 6.117188 14.050781 6.0625 14 6.011719 C 13.953125 5.964844 13.90625 5.917969 13.855469 5.871094 C 13.800781 5.820312 13.746094 5.773438 13.691406 5.726562 C 13.640625 5.683594 13.589844 5.640625 13.539062 5.597656 C 13.480469 5.550781 13.421875 5.507812 13.363281 5.460938 C 13.308594 5.421875 13.257812 5.382812 13.203125 5.347656 C 13.140625 5.304688 13.078125 5.265625 13.015625 5.226562 C 12.960938 5.191406 12.90625 5.15625 12.847656 5.121094 C 12.785156 5.082031 12.71875 5.046875 12.652344 5.015625 C 12.59375 4.984375 12.539062 4.953125 12.476562 4.921875 C 12.410156 4.890625 12.339844 4.859375 12.273438 4.828125 C 12.214844 4.804688 12.152344 4.777344 12.09375 4.75 C 12.023438 4.722656 11.949219 4.699219 11.875 4.671875 C 11.816406 4.652344 11.757812 4.628906 11.695312 4.609375 C 11.617188 4.585938 11.542969 4.566406 11.464844 4.542969 C 11.40625 4.527344 11.34375 4.511719 11.285156 4.496094 C 11.203125 4.476562 11.117188 4.460938 11.035156 4.445312 C 10.980469 4.4375 10.921875 4.421875 10.867188 4.414062 C 10.773438 4.398438 10.675781 4.390625 10.582031 4.382812 C 10.53125 4.375 10.484375 4.367188 10.4375 4.363281 C 10.292969 4.355469 10.148438 4.347656 10 4.347656 C 9.851562 4.347656 9.707031 4.355469 9.5625 4.363281 C 9.515625 4.367188 9.46875 4.375 9.417969 4.382812 C 9.324219 4.390625 9.230469 4.402344 9.136719 4.414062 C 9.078125 4.425781 9.019531 4.4375 8.964844 4.449219 C 8.882812 4.464844 8.796875 4.476562 8.714844 4.496094 C 8.65625 4.511719 8.59375 4.53125 8.535156 4.546875 C 8.457031 4.566406 8.382812 4.585938 8.304688 4.609375 C 8.242188 4.628906 8.183594 4.652344 8.121094 4.675781 C 8.050781 4.699219 7.980469 4.722656 7.910156 4.75 C 7.847656 4.777344 7.785156 4.804688 7.722656 4.832031 C 7.65625 4.859375 7.589844 4.890625 7.523438 4.921875 C 7.460938 4.953125 7.402344 4.984375 7.34375 5.015625 C 7.277344 5.050781 7.214844 5.082031 7.15625 5.121094 C 7.09375 5.15625 7.035156 5.191406 6.976562 5.230469 C 6.917969 5.265625 6.859375 5.304688 6.800781 5.34375 C 6.742188 5.382812 6.6875 5.425781 6.628906 5.46875 C 6.574219 5.507812 6.519531 5.550781 6.464844 5.59375 C 6.410156 5.636719 6.355469 5.683594 6.300781 5.730469 C 6.25 5.777344 6.199219 5.820312 6.148438 5.867188 C 6.097656 5.917969 6.046875 5.964844 5.992188 6.019531 C 5.945312 6.066406 5.898438 6.113281 5.855469 6.164062 C 5.804688 6.21875 5.757812 6.269531 5.707031 6.328125 C 5.664062 6.378906 5.621094 6.429688 5.578125 6.484375 C 5.535156 6.539062 5.488281 6.597656 5.445312 6.65625 C 5.40625 6.710938 5.367188 6.769531 5.328125 6.824219 C 5.285156 6.886719 5.246094 6.945312 5.207031 7.007812 C 5.171875 7.066406 5.136719 7.128906 5.101562 7.1875 C 5.066406 7.25 5.03125 7.3125 4.996094 7.375 C 4.960938 7.441406 4.929688 7.507812 4.898438 7.578125 C 4.871094 7.636719 4.839844 7.699219 4.8125 7.761719 C 4.804688 7.78125 4.792969 7.804688 4.785156 7.824219 L 0.871094 7.824219 L 0.871094 3.042969 C 0.871094 1.84375 1.84375 0.871094 3.042969 0.871094 L 16.957031 0.871094 C 18.15625 0.871094 19.128906 1.84375 19.128906 3.042969 Z M 19.128906 7.824219 "/>
<path style=" stroke:none;fill-rule:nonzero;fill:rgb(100%,100%,100%);fill-opacity:1;" d="M 10 6.957031 C 8.320312 6.957031 6.957031 8.320312 6.957031 10 C 6.957031 11.679688 8.320312 13.042969 10 13.042969 C 11.679688 13.042969 13.042969 11.679688 13.042969 10 C 13.042969 8.320312 11.679688 6.957031 10 6.957031 Z M 10 12.175781 C 8.800781 12.175781 7.824219 11.199219 7.824219 10 C 7.824219 8.800781 8.800781 7.824219 10 7.824219 C 11.199219 7.824219 12.175781 8.800781 12.175781 10 C 12.175781 11.199219 11.199219 12.175781 10 12.175781 Z M 10 12.175781 "/>
<path style=" stroke:none;fill-rule:nonzero;fill:rgb(100%,100%,100%);fill-opacity:1;" d="M 16.957031 2.609375 L 15.652344 2.609375 C 15.410156 2.609375 15.21875 2.804688 15.21875 3.042969 L 15.21875 4.347656 C 15.21875 4.585938 15.410156 4.78125 15.652344 4.78125 L 16.957031 4.78125 C 17.195312 4.78125 17.390625 4.585938 17.390625 4.347656 L 17.390625 3.042969 C 17.390625 2.804688 17.195312 2.609375 16.957031 2.609375 Z M 16.523438 3.914062 L 16.085938 3.914062 L 16.085938 3.476562 L 16.523438 3.476562 Z M 16.523438 3.914062 "/>
</g>
</svg>
