<svg id="Layer_2" data-name="Layer 2" xmlns="http://www.w3.org/2000/svg" xmlns:xlink="http://www.w3.org/1999/xlink" viewBox="0 0 480.25 176.09"><defs><style>.cls-1{opacity:0.8;}.cls-2{fill:url(#linear-gradient);}.cls-3,.cls-4{fill:#fff;}.cls-4{isolation:isolate;font-size:13.25px;font-family:Poppins-SemiBold, Poppins;font-weight:600;}</style><linearGradient id="linear-gradient" x1="59.89" y1="1130.78" x2="59.89" y2="1222.04" gradientTransform="translate(0 -1099.26)" gradientUnits="userSpaceOnUse"><stop offset="0.55" stop-color="#b92025"/><stop offset="0.88" stop-color="#8e1a1d"/></linearGradient></defs><g class="cls-1"><path d="M32,58.43V45.79h7.44v5.44c6.36-6.35,12.68-12.71,19-19q15.45,15.45,30.95,30.9l-25,25c10.22,10.22,20.26,20.44,30.48,30.66H23.48V68.82c13.61,13.61,26.74,27.23,40.35,40.83h9.62C58,94.2,42.72,78.75,27.27,63.3,28.89,61.68,30.35,60.05,32,58.43Zm20,51.13-20-20v20Zm6.58-27.2,19-19-19-19.07-18.95,19Z"/><path d="M152.92,113.69v4a1.46,1.46,0,0,1-1.46,1.45H140.38L129.27,96.27h-9.84v16h5.19a1.45,1.45,0,0,1,1.45,1.45v4a1.45,1.45,0,0,1-1.45,1.45H106.28a1.45,1.45,0,0,1-1.45-1.45v-4a1.45,1.45,0,0,1,1.45-1.45h4.09V72.52h-4.09a1.45,1.45,0,0,1-1.45-1.45V67.12a1.45,1.45,0,0,1,1.45-1.45h24.43c11.07,0,17.95,6.08,17.95,15.07,0,6.63-4,13.07-9.75,15.16l8.53,16.34h4A1.46,1.46,0,0,1,152.92,113.69ZM119.43,89.18h10.79a8,8,0,0,0,8.42-8.42c0-5-3.46-8.42-8.56-8.42H119.43Z"/><path d="M189.31,102.81H164.84c.73,6.26,4.21,10.79,11.1,10.63,4.17-.09,8.92-2.2,11.78-4v7.47c-3.67,1.46-7.95,3.27-13.27,3.27-11.8,0-19.07-7.62-19.07-20,0-12.15,7-20.21,18.18-20.21,9.49,0,15.75,7.7,15.75,19.2Zm-24.47-6.47h14.94c.48-5.75-3.1-9.64-7-9.64S165.11,90.05,164.84,96.34Z"/><path d="M231.84,87.31h-2.42l-11.66,32.27h-9.38L196.32,87.31H194a1.45,1.45,0,0,1-1.45-1.45V82.14A1.45,1.45,0,0,1,194,80.69h14.85a1.45,1.45,0,0,1,1.45,1.45v3.73a1.45,1.45,0,0,1-1.45,1.45h-3.14l7.75,22.87,7.72-22.87h-3a1.45,1.45,0,0,1-1.45-1.45V82.14a1.45,1.45,0,0,1,1.45-1.45h13.71a1.45,1.45,0,0,1,1.45,1.45v3.73a1.45,1.45,0,0,1-1.45,1.45Z"/><path d="M322.2,114.27V118a1.45,1.45,0,0,1-1.45,1.45H309.3v-5.84c-2.81,5-6.63,6.56-11.89,6.56-7.91,0-12.64-5.18-12.64-15.18V87.47h-3.44A1.46,1.46,0,0,1,279.87,86V82.14a1.45,1.45,0,0,1,1.46-1.45h13v22.82c0,5.47.19,9.91,6.27,9.91,5.65,0,7.32-5.66,7.32-11.85V87.47H304.4A1.45,1.45,0,0,1,303,86V82.14a1.45,1.45,0,0,1,1.45-1.45h12.71v32.13h3.67A1.45,1.45,0,0,1,322.2,114.27Z"/><path d="M344.56,114.33V118a1.45,1.45,0,0,1-1.46,1.45H327.75A1.45,1.45,0,0,1,326.3,118v-3.68a1.45,1.45,0,0,1,1.45-1.46H331V87.36h-3a1.45,1.45,0,0,1-1.45-1.45V82.14A1.45,1.45,0,0,1,328,80.69h11.85v32.19h3.27a1.45,1.45,0,0,1,1.45,1.43ZM334.44,75.12h0a5.72,5.72,0,0,1-5.63-5.81h0a5.72,5.72,0,0,1,5.63-5.81h0a5.72,5.72,0,0,1,5.63,5.81h0a5.72,5.72,0,0,1-5.61,5.81h0Z"/><path d="M367.34,114.25V118a1.45,1.45,0,0,1-1.45,1.45H350.71a1.45,1.45,0,0,1-1.45-1.45v-3.76a1.45,1.45,0,0,1,1.45-1.45h3.15V69.85h-3.15a1.45,1.45,0,0,1-1.46-1.45V64.81a1.46,1.46,0,0,1,1.46-1.46h12.08V112.8h3.1a1.45,1.45,0,0,1,1.45,1.45Z"/><path d="M260,80c-5.32,0-9.28,2-11.8,5.84V63.35h-11.9a1.45,1.45,0,0,0-1.45,1.46v3.63a1.45,1.45,0,0,0,1.45,1.45h3V113h-3a1.45,1.45,0,0,0-1.45,1.46V118a1.45,1.45,0,0,0,1.45,1.45h11.4v-6c2.45,4.6,6.41,6.75,12.31,6.75,9.35,0,14.93-8,14.93-19.93C274.92,88,269.33,80,260,80Zm-3.09,33.37c-5.18,0-8.71-6.25-8.71-13.3s3.52-13.14,8.71-13.14,8.56,6.17,8.56,13.21-3.45,13.24-8.56,13.24Z"/><path d="M407.48,113V63.35H395a1.45,1.45,0,0,0-1.45,1.46v3.63A1.45,1.45,0,0,0,395,69.89h3.61V85.82c-2.52-3.88-6.48-5.84-11.8-5.84-9.35,0-14.94,8.06-14.94,20.28,0,11.95,5.59,19.93,14.94,19.93,5.9,0,9.86-2.15,12.31-6.75v6h11.39A1.46,1.46,0,0,0,412,118v-3.56a1.46,1.46,0,0,0-1.46-1.46Zm-17.56.37c-5.11,0-8.56-6.17-8.56-13.23s3.45-13.21,8.56-13.21,8.72,6.17,8.72,13.14-3.54,13.29-8.72,13.29Z"/></g><path class="cls-2" d="M32.68,57.36V44.73h7.44v5.44l19-19.08Q74.61,46.54,90.11,62l-25,25c10.22,10.22,20.25,20.45,30.47,30.67H24.21V67.76C37.81,81.37,51,95,64.56,108.6h9.62C58.73,93.13,43.45,77.68,28,62.23,29.62,60.6,31.07,59,32.68,57.36Zm20,51.12-20-20v20Zm6.58-27.19,19-19-19.06-19L40.21,62.22Z"/><path class="cls-3" d="M153.78,112.59v4a1.45,1.45,0,0,1-1.45,1.45H141.26L130.14,95.16h-9.83v16h5.19a1.45,1.45,0,0,1,1.45,1.46v4A1.45,1.45,0,0,1,125.5,118H107.17a1.45,1.45,0,0,1-1.45-1.45v-4a1.45,1.45,0,0,1,1.45-1.46h4.09V71.43h-4.09A1.45,1.45,0,0,1,105.72,70V66a1.45,1.45,0,0,1,1.45-1.45h24.42c11.08,0,17.95,6.08,17.95,15.07,0,6.62-4,13.07-9.74,15.17l8.54,16.31h4a1.46,1.46,0,0,1,1.46,1.46ZM120.3,88.06h10.77c5,0,8.42-3.38,8.42-8.42s-3.46-8.42-8.55-8.42H120.31Z"/><path class="cls-3" d="M190.19,101.72H165.73c.72,6.26,4.2,10.79,11.1,10.63,4.17-.1,8.92-2.21,11.77-4v7.47c-3.67,1.46-7.95,3.27-13.27,3.27-11.8,0-19.06-7.62-19.06-20,0-12.15,7-20.21,18.17-20.21,9.49,0,15.75,7.69,15.75,19.21Zm-24.46-6.47h15c.48-5.75-3.1-9.64-7-9.64s-7.71,3.35-8,9.64Z"/><path class="cls-3" d="M232.72,86.22H230.3l-11.65,32.26h-9.39l-12-32.26h-2.34a1.45,1.45,0,0,1-1.45-1.45V81.06a1.45,1.45,0,0,1,1.45-1.46h14.87a1.45,1.45,0,0,1,1.45,1.46v3.72a1.45,1.45,0,0,1-1.45,1.45h-3.17l7.74,22.87L222,86.23h-3a1.45,1.45,0,0,1-1.45-1.45V81.06A1.45,1.45,0,0,1,219,79.6h13.73a1.45,1.45,0,0,1,1.45,1.46v3.72a1.45,1.45,0,0,1-1.45,1.45Z"/><path class="cls-3" d="M323.08,113.18v3.74a1.45,1.45,0,0,1-1.45,1.45H310.18v-5.83c-2.79,5-6.64,6.55-11.9,6.55-7.91,0-12.64-5.18-12.64-15.18V86.37H282.2a1.45,1.45,0,0,1-1.45-1.45V81.06a1.45,1.45,0,0,1,1.45-1.46h13v22.83c0,5.46.19,9.9,6.27,9.9,5.65,0,7.32-5.66,7.32-11.84V86.37h-3.51a1.45,1.45,0,0,1-1.45-1.45V81.06a1.45,1.45,0,0,1,1.45-1.46H318v32.14h3.67A1.45,1.45,0,0,1,323.08,113.18Z"/><path class="cls-3" d="M345.44,113.24v3.68a1.45,1.45,0,0,1-1.45,1.45H328.63a1.45,1.45,0,0,1-1.45-1.45v-3.68a1.45,1.45,0,0,1,1.45-1.46h3.27V86.27h-3a1.45,1.45,0,0,1-1.45-1.45V81.06a1.45,1.45,0,0,1,1.45-1.46H340.7v32.19H344a1.45,1.45,0,0,1,1.46,1.45ZM335.34,74h0a5.72,5.72,0,0,1-5.63-5.81h0a5.72,5.72,0,0,1,5.63-5.81h0A5.71,5.71,0,0,1,341,68.22h0A5.72,5.72,0,0,1,335.34,74Z"/><path class="cls-3" d="M368.23,113.16v3.76a1.45,1.45,0,0,1-1.46,1.45H351.59a1.45,1.45,0,0,1-1.45-1.45v-3.76a1.45,1.45,0,0,1,1.45-1.45h3.15V68.76h-3.15a1.45,1.45,0,0,1-1.45-1.46V63.71a1.45,1.45,0,0,1,1.45-1.45h12.09v49.45h3.09A1.45,1.45,0,0,1,368.23,113.16Z"/><path class="cls-3" d="M260.86,78.88c-5.32,0-9.28,2-11.79,5.84V62.26H237.16a1.45,1.45,0,0,0-1.45,1.45v3.63a1.45,1.45,0,0,0,1.45,1.46h3.06v43.12h-3.05a1.45,1.45,0,0,0-1.45,1.45v3.56a1.45,1.45,0,0,0,1.45,1.45h11.4v-6c2.45,4.6,6.41,6.75,12.31,6.75,9.35,0,14.94-8,14.94-19.93C275.8,86.94,270.21,78.88,260.86,78.88Zm-3.09,33.37c-5.18,0-8.72-6.25-8.72-13.3s3.53-13.14,8.72-13.14S266.33,92,266.33,99,262.88,112.25,257.77,112.25Z"/><path class="cls-3" d="M408.36,111.92V62.26H395.9a1.45,1.45,0,0,0-1.45,1.46v3.63a1.45,1.45,0,0,0,1.45,1.45h3.61V84.73c-2.52-3.88-6.48-5.84-11.8-5.84-9.35,0-14.93,8.06-14.93,20.29,0,11.94,5.58,19.92,14.93,19.92,5.9,0,9.86-2.15,12.31-6.75v6h11.39a1.45,1.45,0,0,0,1.45-1.45v-3.56a1.45,1.45,0,0,0-1.45-1.45Zm-17.56.36c-5.1,0-8.56-6.17-8.56-13.23s3.46-13.21,8.56-13.21S399.52,92,399.52,99s-3.53,13.29-8.72,13.29Z"/><text class="cls-4" transform="translate(279.98 140.47)">FOR THE REAL WORD</text></svg>