<svg id="Layer_2" data-name="Layer 2" xmlns="http://www.w3.org/2000/svg" xmlns:xlink="http://www.w3.org/1999/xlink" viewBox="0 0 1072.54 304.42"><defs><style>.cls-1{opacity:0.8;}.cls-2{fill:url(#linear-gradient);}.cls-3,.cls-4{fill:#fff;}.cls-4{font-size:36.5px;font-family:Poppins-SemiBold, Poppins;font-weight:600;}</style><linearGradient id="linear-gradient" x1="100.3" y1="244.71" x2="100.3" y2="-6.68" gradientTransform="matrix(1, 0, 0, -1, 0, 245.89)" gradientUnits="userSpaceOnUse"><stop offset="0.55" stop-color="#b92025"/><stop offset="0.88" stop-color="#8e1a1d"/></linearGradient></defs><g class="cls-1"><path d="M23.33,75.31V40.48H43.82v15C61.34,38,78.74,20.48,96.26,3q42.57,42.57,85.25,85.13L112.65,157c28.16,28.15,55.79,56.31,83.94,84.47H0V103.93c37.48,37.48,73.66,75,111.14,112.45h26.51C95.1,173.83,53,131.28,10.43,88.73,14.91,84.26,18.91,79.78,23.33,75.31ZM78.4,216.13,23.27,161v55.12Zm18.09-74.91L148.74,89,96.29,36.48l-52.2,52.2Z"/><path d="M356.51,227.53v11a4,4,0,0,1-4,4H322l-30.61-63H264.29v44.05h14.3a4,4,0,0,1,4,4v11a4,4,0,0,1-4,4H228.08a4,4,0,0,1-4-4v-11a4,4,0,0,1,4-4h11.26V114.12H228.08a4,4,0,0,1-4-4V99.25a4,4,0,0,1,4-4h67.27c30.51,0,49.44,16.75,49.44,41.52,0,18.24-11,36-26.84,41.76l23.49,45h11.07a4,4,0,0,1,4,4ZM264.29,160H294c13.87,0,23.19-9.32,23.19-23.19s-9.52-23.18-23.58-23.18H264.29Z"/><path d="M456.77,197.55H389.38c2,17.24,11.58,29.72,30.57,29.28,11.49-.26,24.57-6.07,32.43-10.94v20.59c-10.11,4-21.89,9-36.55,9-32.5,0-52.51-21-52.51-55.08,0-33.49,19.35-55.68,50.06-55.68,26.15,0,43.39,21.2,43.39,52.9Zm-67.39-17.83h41.18c1.31-15.83-8.55-26.54-19.25-26.54-11.1,0-21.19,9.23-21.93,26.54Z"/><path d="M573.91,154.87h-6.66l-32.11,88.86H509.3l-33.23-88.86h-6.44a4,4,0,0,1-4-4V140.62a4,4,0,0,1,4-4h40.91a4,4,0,0,1,4,4v10.25a4,4,0,0,1-4,4h-8.63l21.33,63,21.28-63h-8.38a4,4,0,0,1-4-4V140.62a4,4,0,0,1,4-4h37.77a4,4,0,0,1,4,4v10.25A4,4,0,0,1,573.91,154.87Z"/><path d="M822.8,229.12v10.3a4,4,0,0,1-4,4H787.26V227.34C779.53,241,769,245.4,754.5,245.4c-21.79,0-34.82-14.26-34.82-41.81v-48.3H710.2a4,4,0,0,1-4-4V140.62a4,4,0,0,1,4-4H746v62.86c0,15.06.51,27.29,17.27,27.29,15.55,0,20.16-15.6,20.16-32.64V155.29h-9.68a4,4,0,0,1-4-4V140.62a4,4,0,0,1,4-4h35v88.5h10.13A4,4,0,0,1,822.8,229.12Z"/><path d="M884.38,229.27v10.15a4,4,0,0,1-4,4H838.1a4,4,0,0,1-4-4V229.27a4,4,0,0,1,4-4h9V155h-8.4a4,4,0,0,1-4-4v-10.4a4,4,0,0,1,4-4h32.63v88.65h9a4,4,0,0,1,4,3.95Zm-27.85-108h0a15.75,15.75,0,0,1-15.5-16h0a15.76,15.76,0,0,1,15.5-16h0a15.76,15.76,0,0,1,15.5,16h0a15.75,15.75,0,0,1-15.46,16h0Z"/><path d="M947.15,229.07v10.35a4,4,0,0,1-4,4H901.33a4,4,0,0,1-4-4V229.07a4,4,0,0,1,4-4H910V106.76h-8.68a4,4,0,0,1-4-4V92.87a4,4,0,0,1,4-4h33.29v136.2h8.53A4,4,0,0,1,947.15,229.07Z"/><path d="M651.42,134.64c-14.66,0-25.56,5.39-32.49,16.09V88.87H586.14a4,4,0,0,0-4,4v10a4,4,0,0,0,4,4h8.41V225.6h-8.41a4,4,0,0,0-4,4v9.82a4,4,0,0,0,4,4h31.39V226.8c6.74,12.68,17.65,18.6,33.89,18.6,25.76,0,41.15-22,41.15-54.89C692.57,156.83,677.18,134.64,651.42,134.64Zm-8.51,91.93c-14.26,0-24-17.23-24-36.65,0-19.22,9.71-36.19,24-36.19,14.07,0,23.58,17,23.58,36.39S657,226.57,642.91,226.57Z"/><path d="M1057.69,225.59V88.87h-34.31a4,4,0,0,0-4,4v10a4,4,0,0,0,4,4h9.94v43.89c-6.94-10.7-17.84-16.09-32.5-16.09-25.76,0-41.14,22.19-41.14,55.87,0,32.89,15.38,54.89,41.14,54.89,16.25,0,27.16-5.92,33.9-18.6v16.62h31.39a4,4,0,0,0,4-4v-9.83a4,4,0,0,0-4-4Zm-48.35,1c-14.07,0-23.58-17-23.58-36.44s9.51-36.39,23.58-36.39c14.27,0,24,17,24,36.19,0,19.39-9.73,36.61-24,36.61Z"/></g><path class="cls-2" d="M25.33,72.36V37.56H45.82v15C63.34,35,80.74,17.56,98.26,0q42.57,42.56,85.25,85.13L114.65,154c28.16,28.16,55.79,56.32,83.94,84.48H2V101c37.48,37.5,73.66,75,111.14,112.5h26.51C97.1,170.88,55,128.33,12.43,85.78,16.91,81.3,20.91,76.83,25.33,72.36ZM80.4,213.18,25.27,158.06v55.12Zm18.09-74.91L150.74,86,98.29,33.57,46.09,85.76Z"/><path class="cls-3" d="M358.91,224.48v11a4,4,0,0,1-4,4h-30.5l-30.61-63H266.72v44H281a4,4,0,0,1,4,4v11a4,4,0,0,1-4,4H230.51a4,4,0,0,1-4-4v-11a4,4,0,0,1,4-4h11.26V111.12H230.51a4,4,0,0,1-4-4V96.24a4,4,0,0,1,4-4h67.27c30.51,0,49.44,16.75,49.44,41.53,0,18.23-11,36-26.84,41.76l23.53,44.95h11A4,4,0,0,1,358.91,224.48Zm-92.22-67.57h29.67c13.87,0,23.19-9.31,23.19-23.18S310,110.55,296,110.55H266.72Z"/><path class="cls-3" d="M459.2,194.55H391.81c2,17.24,11.58,29.71,30.57,29.28,11.49-.27,24.57-6.08,32.43-10.94v20.59c-10.11,4-21.89,9-36.55,9-32.5,0-52.51-21-52.51-55.09,0-33.48,19.35-55.68,50.06-55.68,26.15,0,43.39,21.2,43.39,52.91Zm-67.39-17.83H433c1.31-15.84-8.55-26.55-19.25-26.55C402.64,150.17,392.55,159.4,391.81,176.72Z"/><path class="cls-3" d="M576.34,151.86h-6.66l-32.11,88.86H511.73l-33.24-88.86h-6.43a4,4,0,0,1-4-4V137.61a4,4,0,0,1,4-4H513a4,4,0,0,1,4,4v10.25a4,4,0,0,1-4,4h-8.68l21.32,63,21.28-63h-8.37a4,4,0,0,1-4-4V137.61a4,4,0,0,1,4-4h37.82a4,4,0,0,1,4,4v10.25a4,4,0,0,1-4,4Z"/><path class="cls-3" d="M825.23,226.12v10.29a4,4,0,0,1-4,4H789.69V224.34C782,238,771.4,242.4,756.93,242.4c-21.79,0-34.82-14.27-34.82-41.81V152.28h-9.48a4,4,0,0,1-4-4V137.61a4,4,0,0,1,4-4h35.76v62.87c0,15.05.51,27.28,17.27,27.28,15.55,0,20.16-15.59,20.16-32.63V152.28h-9.68a4,4,0,0,1-4-4V137.61a4,4,0,0,1,4-4h35v88.51h10.13A4,4,0,0,1,825.23,226.12Z"/><path class="cls-3" d="M886.81,226.27v10.14a4,4,0,0,1-4,4H840.53a4,4,0,0,1-4-4V226.27a4,4,0,0,1,4-4h9V152h-8.4a4,4,0,0,1-4-4V137.61a4,4,0,0,1,4-4h32.63v88.66h9a4,4,0,0,1,4,3.95ZM859,118.27h0a15.76,15.76,0,0,1-15.5-16h0a15.75,15.75,0,0,1,15.5-16h0a15.75,15.75,0,0,1,15.5,16h0a15.76,15.76,0,0,1-15.48,16h0Z"/><path class="cls-3" d="M949.58,226.06v10.35a4,4,0,0,1-4,4H903.76a4,4,0,0,1-4-4V226.06a4,4,0,0,1,4-4h8.68V103.75h-8.68a4,4,0,0,1-4-4V89.86a4,4,0,0,1,4-4h33.29v136.2h8.53a4,4,0,0,1,4,4Z"/><path class="cls-3" d="M653.85,131.63c-14.66,0-25.56,5.4-32.49,16.09V85.86H588.57a4,4,0,0,0-4,4v10a4,4,0,0,0,4,4H597V222.59h-8.41a4,4,0,0,0-4,4v9.82a4,4,0,0,0,4,4H620V223.8c6.74,12.68,17.65,18.6,33.89,18.6,25.76,0,41.15-22,41.15-54.89C695,153.83,679.61,131.63,653.85,131.63Zm-8.52,91.93c-14.26,0-24-17.23-24-36.64,0-19.23,9.71-36.2,24-36.2,14.07,0,23.58,17,23.58,36.39s-9.51,36.45-23.58,36.45Z"/><path class="cls-3" d="M1060.12,222.59V85.87h-34.31a4,4,0,0,0-4,4v10a4,4,0,0,0,4,4h9.94v43.89c-6.94-10.7-17.84-16.09-32.5-16.09-25.76,0-41.14,22.19-41.14,55.87,0,32.89,15.38,54.89,41.14,54.89,16.25,0,27.16-5.92,33.9-18.6v16.62h31.39a4,4,0,0,0,4-4v-9.83a4,4,0,0,0-4-4Zm-48.35,1c-14.07,0-23.58-17-23.58-36.44s9.51-36.39,23.58-36.39c14.27,0,24,17,24,36.19,0,19.39-9.73,36.61-24,36.61Z"/><text class="cls-4" transform="translate(706.52 301.29)">FOR THE REAL WORD</text></svg>