<svg id="Layer_1" data-name="Layer 1" xmlns="http://www.w3.org/2000/svg" xmlns:xlink="http://www.w3.org/1999/xlink" viewBox="0 0 293.25 96.43"><defs><style>.cls-1{opacity:0.32;fill:url(#linear-gradient);}.cls-1,.cls-2,.cls-4{isolation:isolate;}.cls-2{opacity:0.36;fill:url(#linear-gradient-2);}.cls-3{fill:#fff;}.cls-4{font-size:17.3px;fill:#f2f1f1;font-family:Poppins-Thin, Poppins;font-weight:200;}</style><linearGradient id="linear-gradient" x1="-65.81" y1="772.42" x2="-8.97" y2="772.42" gradientTransform="matrix(-1, 0, 0, 1, 2.81, -732.22)" gradientUnits="userSpaceOnUse"><stop offset="0" stop-color="#981b1e"/><stop offset="1" stop-color="#5b0b0c"/></linearGradient><linearGradient id="linear-gradient-2" x1="-76.59" y1="787.1" x2="-27.54" y2="787.1" gradientTransform="matrix(-1, 0, 0, 1, 8.89, -746.91)" xlink:href="#linear-gradient"/></defs><rect class="cls-1" x="11.78" y="11.77" width="56.84" height="56.84" transform="translate(-16.65 40.2) rotate(-45)"/><rect class="cls-2" x="36.43" y="15.67" width="49.05" height="49.05" transform="translate(-10.57 54.87) rotate(-45)"/><path class="cls-3" d="M51.81,29.68V21.73h4.68v3.44l12-12L88,32.61,72.21,48.34C78.65,54.77,85,61.21,91.39,67.64H46.47V36.22C55,44.78,63.28,53.35,71.87,61.94h6c-9.67-9.75-19.29-19.47-29-29.2C49.87,31.72,50.79,30.7,51.81,29.68ZM64.39,61.85,51.79,49.26V61.85Zm4.13-17.11L80.46,32.8l-12-12L56.55,32.74Z"/><path class="cls-3" d="M130.21,64.46v2.48a.91.91,0,0,1-.91.91h-7l-7-14.4h-6.2V63.54h3.27a.93.93,0,0,1,.91.92v2.48a.91.91,0,0,1-.91.91h-11.5a.91.91,0,0,1-.91-.91h0V64.46a.93.93,0,0,1,.91-.92h2.57v-25h-2.57a.93.93,0,0,1-.91-.92V35.15a.93.93,0,0,1,.91-.92h15.41c7,0,11.29,3.83,11.29,9.49,0,4.17-2.51,8.23-6.13,9.54l5.37,10.28h2.47a.92.92,0,0,1,.93.91ZM109.14,49h6.78a5,5,0,0,0,5.3-4.68c0-.21,0-.41,0-.62a5.07,5.07,0,0,0-4.81-5.3h-7.27Z"/><path class="cls-3" d="M153.12,57.61h-15.4c.45,3.94,2.65,6.79,7,6.69a16.31,16.31,0,0,0,7.41-2.5v4.69a21.91,21.91,0,0,1-8.35,2c-7.42,0-12-4.8-12-12.59s4.42-12.72,11.43-12.72c6,0,9.92,4.85,9.92,12.09Zm-15.4-4.08h9.41c.3-3.61-1.95-6.06-4.4-6.06S137.89,49.58,137.72,53.53Z"/><path class="cls-3" d="M179.88,47.86h-1.52L171,68.16h-5.9l-7.59-20.3h-1.47a.92.92,0,0,1-.92-.92V44.6a.93.93,0,0,1,.92-.91h9.34a.93.93,0,0,1,.92.91v2.34a.92.92,0,0,1-.92.92h-2l4.88,14.4,4.86-14.4h-1.86a.91.91,0,0,1-.91-.91h0V44.6a.91.91,0,0,1,.91-.91h8.64a.91.91,0,0,1,.91.91h0v2.34a.91.91,0,0,1-.9.92Z"/><path class="cls-3" d="M236.74,64.82v2.35a.91.91,0,0,1-.9.92h-7.22V64.41c-1.76,3.13-4.17,4.13-7.48,4.13-5,0-8-3.26-8-9.55V47.94H211a.93.93,0,0,1-.92-.91V44.6a.93.93,0,0,1,.92-.91h8.17V58c0,3.44.12,6.23,4,6.23,3.55,0,4.6-3.56,4.6-7.45V47.94h-2.21a.91.91,0,0,1-.91-.91h0V44.6a.91.91,0,0,1,.91-.91h8V63.94h2.31A.92.92,0,0,1,236.74,64.82Z"/><path class="cls-3" d="M250.81,64.86v2.31a.93.93,0,0,1-.91.92h-9.62a.91.91,0,0,1-.91-.91h0V64.86a.91.91,0,0,1,.9-.92h2v-16h-1.9a.91.91,0,0,1-.91-.91h0V44.6a.91.91,0,0,1,.91-.91h7.46V63.94h2.06A.93.93,0,0,1,250.81,64.86Zm-6.36-24.67h0a3.6,3.6,0,0,1-3.54-3.66h0a3.6,3.6,0,0,1,3.54-3.65h0A3.6,3.6,0,0,1,248,36.53h0a3.6,3.6,0,0,1-3.54,3.66Z"/><path class="cls-3" d="M265.15,64.81v2.36a.91.91,0,0,1-.9.92h-9.56a.92.92,0,0,1-.92-.92h0V64.81a.92.92,0,0,1,.92-.92h2v-27h-2a.93.93,0,0,1-.92-.91V33.69a.93.93,0,0,1,.92-.91h7.59V63.94h2A.91.91,0,0,1,265.15,64.81Z"/><path class="cls-3" d="M197.59,43.23c-3.35,0-5.84,1.24-7.42,3.68V32.78h-7.5a.91.91,0,0,0-.91.91h0v2.25a.91.91,0,0,0,.91.91h1.93V64h-1.93a.93.93,0,0,0-.91.92v2.24a.93.93,0,0,0,.91.92h7.18v-3.8c1.54,2.9,4,4.25,7.74,4.25,5.89,0,9.4-5,9.4-12.54C207,48.3,203.48,43.23,197.59,43.23Zm-2,21c-3.26,0-5.47-3.94-5.47-8.38s2.21-8.26,5.47-8.26S201,51.46,201,55.9s-2.17,8.34-5.39,8.34Z"/><path class="cls-3" d="M290.41,64V32.78h-7.84a.91.91,0,0,0-.91.91h0v2.25a.91.91,0,0,0,.91.91h2.27V46.94c-1.58-2.44-4.07-3.67-7.42-3.67-5.89,0-9.4,5.06-9.4,12.76,0,7.51,3.51,12.54,9.4,12.54,3.71,0,6.2-1.35,7.74-4.25v3.8h7.17a.92.92,0,0,0,.92-.92h0V64.94a.92.92,0,0,0-.92-.92h-1.92Zm-11.05.23c-3.21,0-5.38-3.89-5.38-8.33s2.17-8.31,5.38-8.31,5.48,3.87,5.48,8.26-2.22,8.38-5.48,8.38Z"/><text class="cls-4" transform="translate(98.64 92.43)">FOR THE REAL WORLD</text></svg>