<svg xmlns="http://www.w3.org/2000/svg" xmlns:xlink="http://www.w3.org/1999/xlink" id="Layer_1" data-name="Layer 1" viewBox="2.72 2.06 293.25 96.43"><defs><style>.cls-1{opacity:0.32;fill:url(#linear-gradient);}.cls-2{opacity:0.36;fill:url(#linear-gradient-2);}.cls-3{fill:#fff;}.cls-4{font-size:18px;fill:#f2f1f1;font-family:Poppins-Thin, Poppins;font-weight:200;}</style><linearGradient id="linear-gradient" x1="-73.96" y1="62.91" x2="-17.12" y2="62.91" gradientTransform="translate(88.46 -20.66)" gradientUnits="userSpaceOnUse"><stop offset="0" stop-color="#981b1e"/><stop offset="1" stop-color="#5b0b0c"/></linearGradient><linearGradient id="linear-gradient-2" x1="-84.74" y1="48.23" x2="-35.69" y2="48.23" gradientTransform="translate(123.89 -5.98)" xlink:href="#linear-gradient"/></defs><rect class="cls-1" x="14.5" y="13.83" width="56.84" height="56.84" transform="translate(103.14 41.78) rotate(135)"/><rect class="cls-2" x="39.15" y="17.72" width="49.05" height="49.05" transform="translate(138.57 27.1) rotate(135)"/><path class="cls-3" d="M54.53,31.74V23.79h4.68v3.44q6-6,12-12L90.67,34.67,74.93,50.4c6.44,6.43,12.75,12.87,19.18,19.3H49.19V38.28C57.76,46.84,66,55.41,74.59,64h6C70.92,54.25,61.3,44.53,51.58,34.8,52.59,33.78,53.51,32.76,54.53,31.74ZM67.11,63.91,54.51,51.32V63.91ZM71.24,46.8,83.18,34.86l-12-12L59.27,34.8Z"/><path class="cls-3" d="M132.93,66.52V69a.91.91,0,0,1-.91.91h-7l-7-14.4h-6.2V65.6h3.27a.92.92,0,0,1,.91.92V69a.91.91,0,0,1-.91.91H103.59a.91.91,0,0,1-.91-.91V66.52a.92.92,0,0,1,.91-.92h2.57v-25h-2.57a.92.92,0,0,1-.91-.92V37.21a.92.92,0,0,1,.91-.92H119c7,0,11.29,3.83,11.29,9.49,0,4.17-2.51,8.23-6.13,9.54l5.37,10.28H132A.92.92,0,0,1,132.93,66.52ZM111.86,51.08h6.78a5,5,0,0,0,5.3-5.3,5.06,5.06,0,0,0-5.39-5.29h-6.69Z"/><path class="cls-3" d="M155.84,59.67h-15.4c.45,3.94,2.65,6.79,7,6.69a16.34,16.34,0,0,0,7.41-2.5v4.69a21.84,21.84,0,0,1-8.35,2c-7.42,0-12-4.8-12-12.59s4.42-12.72,11.43-12.72c6,0,9.92,4.85,9.92,12.09Zm-15.4-4.08h9.41c.3-3.61-1.95-6.06-4.4-6.06S140.61,51.64,140.44,55.59Z"/><path class="cls-3" d="M182.6,49.92h-1.52l-7.34,20.3h-5.9l-7.59-20.3h-1.47a.92.92,0,0,1-.92-.92V46.66a.92.92,0,0,1,.92-.91h9.34a.92.92,0,0,1,.92.91V49a.92.92,0,0,1-.92.92h-2L171,64.32l4.86-14.4H174a.91.91,0,0,1-.91-.92V46.66a.91.91,0,0,1,.91-.91h8.64a.91.91,0,0,1,.91.91V49A.91.91,0,0,1,182.6,49.92Z"/><path class="cls-3" d="M239.46,66.88v2.35a.91.91,0,0,1-.91.92h-7.21V66.47c-1.76,3.13-4.17,4.13-7.48,4.13-5,0-8-3.26-8-9.55V50h-2.16a.92.92,0,0,1-.92-.91V46.66a.92.92,0,0,1,.92-.91h8.17V60.1c0,3.44.12,6.23,4,6.23,3.55,0,4.6-3.56,4.6-7.45V50h-2.21a.91.91,0,0,1-.91-.91V46.66a.91.91,0,0,1,.91-.91h8V66h2.31A.91.91,0,0,1,239.46,66.88Z"/><path class="cls-3" d="M253.53,66.92v2.31a.92.92,0,0,1-.91.92H243a.91.91,0,0,1-.91-.92V66.92A.91.91,0,0,1,243,66H245V50H243.1a.91.91,0,0,1-.91-.91V46.66a.91.91,0,0,1,.91-.91h7.46V66h2.06A.92.92,0,0,1,253.53,66.92Zm-6.36-24.67h0a3.61,3.61,0,0,1-3.54-3.66h0a3.6,3.6,0,0,1,3.54-3.65h0a3.6,3.6,0,0,1,3.54,3.65h0A3.6,3.6,0,0,1,247.17,42.25Z"/><path class="cls-3" d="M267.87,66.87v2.36a.91.91,0,0,1-.91.92h-9.55a.92.92,0,0,1-.92-.92V66.87a.92.92,0,0,1,.92-.92h2v-27h-2a.92.92,0,0,1-.92-.91V35.75a.92.92,0,0,1,.92-.91H265V66H267A.91.91,0,0,1,267.87,66.87Z"/><path class="cls-3" d="M200.31,45.29c-3.35,0-5.84,1.24-7.42,3.68V34.84h-7.5a.91.91,0,0,0-.91.91V38a.91.91,0,0,0,.91.91h1.93V66.07h-1.93a.92.92,0,0,0-.91.92v2.24a.92.92,0,0,0,.91.92h7.18v-3.8c1.54,2.9,4,4.25,7.74,4.25,5.89,0,9.4-5,9.4-12.54C209.71,50.36,206.2,45.29,200.31,45.29Zm-1.95,21c-3.26,0-5.47-3.94-5.47-8.38s2.21-8.26,5.47-8.26,5.39,3.87,5.39,8.31S201.58,66.3,198.36,66.3Z"/><path class="cls-3" d="M293.13,66.07V34.84h-7.84a.91.91,0,0,0-.91.91V38a.91.91,0,0,0,.91.91h2.27V49c-1.58-2.44-4.07-3.67-7.42-3.67-5.89,0-9.4,5.06-9.4,12.76,0,7.51,3.51,12.54,9.4,12.54,3.71,0,6.2-1.35,7.74-4.25v3.8h7.17a.92.92,0,0,0,.92-.92V67a.92.92,0,0,0-.92-.92Zm-11.05.23c-3.21,0-5.38-3.89-5.38-8.33s2.17-8.31,5.38-8.31,5.48,3.87,5.48,8.26S285.34,66.3,282.08,66.3Z"/><text class="cls-4" transform="translate(101.36 94.49)">FOR THE REAL WORD</text></svg>