<svg xmlns="http://www.w3.org/2000/svg" xmlns:xlink="http://www.w3.org/1999/xlink" id="Layer_2" data-name="Layer 2" viewBox="5.09 2.52 1072.54 245.48"><defs><style>.cls-1{opacity:0.8;}.cls-2{fill:url(#linear-gradient);}.cls-3{fill:#fff;}</style><linearGradient id="linear-gradient" x1="105.39" y1="3.7" x2="105.39" y2="255.09" gradientUnits="userSpaceOnUse"><stop offset="0.55" stop-color="#b92025"/><stop offset="0.88" stop-color="#8e1a1d"/></linearGradient></defs><g class="cls-1"><path d="M28.42,77.83V43H48.91v15C66.43,40.55,83.83,23,101.35,5.51q42.57,42.57,85.25,85.13l-68.86,68.87c28.16,28.15,55.79,56.31,83.94,84.47H5.09V106.45c37.48,37.48,73.66,75,111.14,112.45h26.51C100.19,176.35,58.07,133.8,15.52,91.25,20,86.78,24,82.3,28.42,77.83ZM83.49,218.65,28.36,163.53v55.12Zm18.09-74.91,52.25-52.25L101.38,39l-52.2,52.2Z"/><path d="M361.6,230.05v11a4,4,0,0,1-4,4H327.1l-30.61-63H269.38v44.05h14.3a4,4,0,0,1,4,4v11a4,4,0,0,1-4,4H233.17a4,4,0,0,1-4-4v-11a4,4,0,0,1,4-4h11.26V116.64H233.17a4,4,0,0,1-4-4V101.77a4,4,0,0,1,4-4h67.27c30.51,0,49.44,16.75,49.44,41.52,0,18.24-11,36-26.84,41.76l23.49,45H357.6A4,4,0,0,1,361.6,230.05Zm-92.22-67.57h29.67c13.87,0,23.19-9.32,23.19-23.19s-9.52-23.18-23.58-23.18H269.38Z"/><path d="M461.86,200.07H394.47c2,17.24,11.58,29.72,30.57,29.28,11.49-.26,24.57-6.07,32.43-10.94V239c-10.11,4-21.89,9-36.55,9-32.5,0-52.51-21-52.51-55.08,0-33.49,19.35-55.68,50.06-55.68,26.15,0,43.39,21.2,43.39,52.9Zm-67.39-17.83h41.18c1.31-15.83-8.55-26.54-19.25-26.54C405.3,155.7,395.21,164.93,394.47,182.24Z"/><path d="M579,157.39h-6.66l-32.11,88.86H514.39l-33.23-88.86h-6.44a4,4,0,0,1-4-4V143.14a4,4,0,0,1,4-4h40.91a4,4,0,0,1,4,4v10.25a4,4,0,0,1-4,4H507l21.33,63,21.28-63h-8.38a4,4,0,0,1-4-4V143.14a4,4,0,0,1,4-4H579a4,4,0,0,1,4,4v10.25A4,4,0,0,1,579,157.39Z"/><path d="M827.89,231.64v10.3a4,4,0,0,1-4,4H792.35V229.86c-7.73,13.68-18.29,18.06-32.76,18.06-21.79,0-34.82-14.26-34.82-41.81v-48.3h-9.48a4,4,0,0,1-4-4V143.14a4,4,0,0,1,4-4h35.76V202c0,15.06.51,27.29,17.27,27.29,15.55,0,20.16-15.6,20.16-32.64V157.81H778.8a4,4,0,0,1-4-4V143.14a4,4,0,0,1,4-4h35v88.5h10.13A4,4,0,0,1,827.89,231.64Z"/><path d="M889.47,231.79v10.15a4,4,0,0,1-4,4H843.19a4,4,0,0,1-4-4V231.79a4,4,0,0,1,4-4h9V157.54h-8.4a4,4,0,0,1-4-4v-10.4a4,4,0,0,1,4-4h32.63v88.65h9A4,4,0,0,1,889.47,231.79Zm-27.85-108h0a15.75,15.75,0,0,1-15.5-16h0a15.76,15.76,0,0,1,15.5-16h0a15.76,15.76,0,0,1,15.5,16h0A15.75,15.75,0,0,1,861.62,123.83Z"/><path d="M952.24,231.59v10.35a4,4,0,0,1-4,4H906.42a4,4,0,0,1-4-4V231.59a4,4,0,0,1,4-4h8.68V109.28h-8.68a4,4,0,0,1-4-4V95.39a4,4,0,0,1,4-4h33.29v136.2h8.53A4,4,0,0,1,952.24,231.59Z"/><path d="M656.51,137.16c-14.66,0-25.56,5.39-32.49,16.09V91.39H591.23a4,4,0,0,0-4,4v10a4,4,0,0,0,4,4h8.41V228.12h-8.41a4,4,0,0,0-4,4v9.82a4,4,0,0,0,4,4h31.39V229.32c6.74,12.68,17.65,18.6,33.89,18.6,25.76,0,41.15-22,41.15-54.89C697.66,159.35,682.27,137.16,656.51,137.16ZM648,229.09c-14.26,0-24-17.23-24-36.65,0-19.22,9.71-36.19,24-36.19,14.07,0,23.58,17,23.58,36.39S662.06,229.09,648,229.09Z"/><path d="M1062.78,228.11V91.39h-34.31a4,4,0,0,0-4,4v10a4,4,0,0,0,4,4h9.94v43.89c-6.94-10.7-17.84-16.09-32.5-16.09-25.76,0-41.14,22.19-41.14,55.87,0,32.89,15.38,54.89,41.14,54.89,16.25,0,27.16-5.92,33.9-18.6v16.62h31.39a4,4,0,0,0,4-4v-9.83a4,4,0,0,0-4-4Zm-48.35,1c-14.07,0-23.58-17-23.58-36.44s9.51-36.39,23.58-36.39c14.27,0,24,17,24,36.19C1038.41,211.86,1028.7,229.08,1014.43,229.08Z"/></g><path class="cls-2" d="M30.42,74.88V40.08H50.91v15c17.52-17.52,34.92-35,52.44-52.56q42.57,42.56,85.25,85.13l-68.86,68.86c28.16,28.16,55.79,56.32,83.94,84.48H7.09V103.5C44.57,141,80.75,178.46,118.23,216h26.51C102.19,173.4,60.07,130.85,17.52,88.3,22,83.82,26,79.35,30.42,74.88ZM85.49,215.7,30.36,160.58V215.7Zm18.09-74.91q26.13-26.13,52.25-52.25L103.38,36.09,51.18,88.28Z"/><path class="cls-3" d="M364,227v11a4,4,0,0,1-4,4h-30.5l-30.61-63H271.81v44h14.3a4,4,0,0,1,4,4v11a4,4,0,0,1-4,4H235.6a4,4,0,0,1-4-4V227a4,4,0,0,1,4-4h11.26V113.64H235.6a4,4,0,0,1-4-4V98.76a4,4,0,0,1,4-4h67.27c30.51,0,49.44,16.75,49.44,41.53,0,18.23-11,36-26.84,41.76L349,223H360A4,4,0,0,1,364,227Zm-92.22-67.57h29.67c13.87,0,23.19-9.31,23.19-23.18s-9.52-23.18-23.58-23.18H271.81Z"/><path class="cls-3" d="M464.29,197.07H396.9c2,17.24,11.58,29.71,30.57,29.28,11.49-.27,24.57-6.08,32.43-10.94V236c-10.11,4-21.89,9-36.55,9-32.5,0-52.51-21-52.51-55.09,0-33.48,19.35-55.68,50.06-55.68,26.15,0,43.39,21.2,43.39,52.91ZM396.9,179.24h41.18c1.31-15.84-8.55-26.55-19.25-26.55C407.73,152.69,397.64,161.92,396.9,179.24Z"/><path class="cls-3" d="M581.43,154.38h-6.66l-32.11,88.86H516.82l-33.24-88.86h-6.43a4,4,0,0,1-4-4V140.13a4,4,0,0,1,4-4h40.91a4,4,0,0,1,4,4v10.25a4,4,0,0,1-4,4h-8.68l21.32,63,21.28-63h-8.37a4,4,0,0,1-4-4V140.13a4,4,0,0,1,4-4h37.82a4,4,0,0,1,4,4v10.25A4,4,0,0,1,581.43,154.38Z"/><path class="cls-3" d="M830.32,228.64v10.29a4,4,0,0,1-4,4H794.78V226.86c-7.73,13.67-18.29,18.06-32.76,18.06-21.79,0-34.82-14.27-34.82-41.81V154.8h-9.48a4,4,0,0,1-4-4V140.13a4,4,0,0,1,4-4h35.76V199c0,15.05.51,27.28,17.27,27.28,15.55,0,20.16-15.59,20.16-32.63V154.8h-9.68a4,4,0,0,1-4-4V140.13a4,4,0,0,1,4-4h35v88.51h10.13A4,4,0,0,1,830.32,228.64Z"/><path class="cls-3" d="M891.9,228.79v10.14a4,4,0,0,1-4,4H845.62a4,4,0,0,1-4-4V228.79a4,4,0,0,1,4-4h9V154.54h-8.4a4,4,0,0,1-4-4V140.13a4,4,0,0,1,4-4h32.63v88.66h9A4,4,0,0,1,891.9,228.79Zm-27.85-108h0a15.76,15.76,0,0,1-15.5-16h0a15.75,15.75,0,0,1,15.5-16h0a15.75,15.75,0,0,1,15.5,16h0A15.76,15.76,0,0,1,864.05,120.83Z"/><path class="cls-3" d="M954.67,228.58v10.35a4,4,0,0,1-4,4H908.85a4,4,0,0,1-4-4V228.58a4,4,0,0,1,4-4h8.68V106.27h-8.68a4,4,0,0,1-4-4V92.38a4,4,0,0,1,4-4h33.29v136.2h8.53A4,4,0,0,1,954.67,228.58Z"/><path class="cls-3" d="M658.94,134.15c-14.66,0-25.56,5.4-32.49,16.09V88.38H593.66a4,4,0,0,0-4,4v10a4,4,0,0,0,4,4h8.41V225.11h-8.41a4,4,0,0,0-4,4v9.82a4,4,0,0,0,4,4h31.39V226.32c6.74,12.68,17.65,18.6,33.89,18.6,25.76,0,41.15-22,41.15-54.89C700.09,156.35,684.7,134.15,658.94,134.15Zm-8.52,91.93c-14.26,0-24-17.23-24-36.64,0-19.23,9.71-36.2,24-36.2,14.07,0,23.58,17,23.58,36.39S664.49,226.08,650.42,226.08Z"/><path class="cls-3" d="M1065.21,225.11V88.39H1030.9a4,4,0,0,0-4,4v10a4,4,0,0,0,4,4h9.94v43.89c-6.94-10.7-17.84-16.09-32.5-16.09-25.76,0-41.14,22.19-41.14,55.87,0,32.89,15.38,54.89,41.14,54.89,16.25,0,27.16-5.92,33.9-18.6v16.62h31.39a4,4,0,0,0,4-4v-9.83a4,4,0,0,0-4-4Zm-48.35,1c-14.07,0-23.58-17-23.58-36.44s9.51-36.39,23.58-36.39c14.27,0,24,17,24,36.19C1040.84,208.86,1031.13,226.08,1016.86,226.08Z"/></svg>