<?xml version="1.0" encoding="UTF-8"?>
<svg xmlns="http://www.w3.org/2000/svg" xmlns:xlink="http://www.w3.org/1999/xlink" width="20px" height="px" viewBox="0 0 20 20" version="1.1">
<g id="surface1">
<path style=" stroke:none;fill-rule:nonzero;fill:rgb(100%,100%,100%);fill-opacity:1;" d="M 18.972656 12.277344 C 18.511719 11.820312 17.890625 11.5625 17.242188 11.5625 L 15.257812 11.5625 C 14.609375 11.5625 13.988281 11.820312 13.527344 12.277344 C 13.1875 12.621094 12.722656 12.8125 12.242188 12.8125 L 12.210938 12.8125 C 9.4375 12.8125 7.1875 10.5625 7.1875 7.789062 L 7.1875 7.757812 C 7.1875 7.277344 7.378906 6.8125 7.722656 6.472656 C 8.179688 6.011719 8.4375 5.390625 8.4375 4.742188 L 8.4375 2.757812 C 8.4375 1.40625 7.34375 0.3125 5.992188 0.3125 L 2.757812 0.3125 C 1.40625 0.3125 0.3125 1.40625 0.3125 2.757812 L 0.3125 3.371094 C 0.300781 7.699219 2.023438 11.855469 5.089844 14.910156 C 8.144531 17.976562 12.300781 19.699219 16.628906 19.6875 L 17.242188 19.6875 C 18.59375 19.6875 19.6875 18.59375 19.6875 17.242188 L 19.6875 14.007812 C 19.6875 13.359375 19.429688 12.738281 18.972656 12.277344 Z M 19.0625 17.242188 C 19.0625 18.246094 18.246094 19.0625 17.242188 19.0625 L 16.628906 19.0625 C 12.464844 19.074219 8.46875 17.417969 5.535156 14.464844 C 2.582031 11.53125 0.925781 7.535156 0.9375 3.371094 L 0.9375 2.757812 C 0.9375 1.753906 1.753906 0.9375 2.757812 0.9375 L 5.992188 0.9375 C 6.996094 0.9375 7.8125 1.753906 7.8125 2.757812 L 7.8125 4.742188 C 7.8125 5.222656 7.621094 5.6875 7.277344 6.027344 C 6.820312 6.488281 6.5625 7.109375 6.5625 7.757812 L 6.5625 7.789062 C 6.5625 10.910156 9.089844 13.4375 12.210938 13.4375 L 12.242188 13.4375 C 12.890625 13.4375 13.511719 13.179688 13.972656 12.722656 C 14.3125 12.378906 14.777344 12.1875 15.257812 12.1875 L 17.242188 12.1875 C 18.246094 12.1875 19.0625 13.003906 19.0625 14.007812 Z M 19.0625 17.242188 "/>
<path style=" stroke:none;fill-rule:nonzero;fill:rgb(100%,100%,100%);fill-opacity:1;" d="M 17.8125 9.375 L 18.4375 9.375 C 18.433594 5.0625 14.9375 1.566406 10.625 1.5625 L 10.625 2.1875 C 14.59375 2.191406 17.808594 5.40625 17.8125 9.375 Z M 17.8125 9.375 "/>
<path style=" stroke:none;fill-rule:nonzero;fill:rgb(100%,100%,100%);fill-opacity:1;" d="M 15.9375 9.375 L 16.5625 9.375 C 16.558594 6.097656 13.902344 3.441406 10.625 3.4375 L 10.625 4.0625 C 13.558594 4.066406 15.933594 6.441406 15.9375 9.375 Z M 15.9375 9.375 "/>
<path style=" stroke:none;fill-rule:nonzero;fill:rgb(100%,100%,100%);fill-opacity:1;" d="M 14.0625 9.375 L 14.6875 9.375 C 14.683594 7.132812 12.867188 5.316406 10.625 5.3125 L 10.625 5.9375 C 12.523438 5.941406 14.058594 7.476562 14.0625 9.375 Z M 14.0625 9.375 "/>
<path style=" stroke:none;fill-rule:nonzero;fill:rgb(100%,100%,100%);fill-opacity:1;" d="M 12.1875 9.375 L 12.8125 9.375 C 12.8125 8.167969 11.832031 7.1875 10.625 7.1875 L 10.625 7.8125 C 11.488281 7.8125 12.1875 8.511719 12.1875 9.375 Z M 12.1875 9.375 "/>
<path style=" stroke:none;fill-rule:nonzero;fill:rgb(100%,100%,100%);fill-opacity:1;" d="M 11.25 9.375 C 11.25 9.71875 10.96875 10 10.625 10 C 10.28125 10 10 9.71875 10 9.375 C 10 9.03125 10.28125 8.75 10.625 8.75 C 10.96875 8.75 11.25 9.03125 11.25 9.375 Z M 11.25 9.375 "/>
</g>
</svg>
