<?xml version="1.0" encoding="UTF-8"?>
<svg xmlns="http://www.w3.org/2000/svg" xmlns:xlink="http://www.w3.org/1999/xlink" width="20px" height="px" viewBox="0 0 20 26" version="1.1">
<g id="surface1">
<path style=" stroke:none;fill-rule:nonzero;fill:rgb(100%,100%,100%);fill-opacity:1;" d="M 10.625 0.328125 C 5.28125 0.328125 0 3.804688 0 9.425781 C 0 13 2.0625 15.03125 3.3125 15.03125 C 3.828125 15.03125 4.125 13.628906 4.125 13.234375 C 4.125 12.761719 2.890625 11.757812 2.890625 9.789062 C 2.890625 5.707031 6.078125 2.8125 10.203125 2.8125 C 13.75 2.8125 16.375 4.777344 16.375 8.390625 C 16.375 11.085938 15.265625 16.144531 11.671875 16.144531 C 10.375 16.144531 9.265625 15.230469 9.265625 13.917969 C 9.265625 12 10.640625 10.140625 10.640625 8.160156 C 10.640625 4.796875 5.75 5.40625 5.75 9.46875 C 5.75 10.324219 5.859375 11.269531 6.25 12.046875 C 5.53125 15.0625 4.0625 19.554688 4.0625 22.664062 C 4.0625 23.625 4.203125 24.566406 4.296875 25.527344 C 4.472656 25.71875 4.386719 25.699219 4.65625 25.605469 C 7.28125 22.101562 7.1875 21.414062 8.375 16.828125 C 9.015625 18.015625 10.671875 18.65625 11.984375 18.65625 C 17.515625 18.65625 20 13.402344 20 8.664062 C 20 3.621094 15.53125 0.328125 10.625 0.328125 Z M 10.625 0.328125 "/>
</g>
</svg>
