<svg xmlns="http://www.w3.org/2000/svg" xmlns:xlink="http://www.w3.org/1999/xlink" version="1.1" viewBox="6.55 4.7 218.96 49.43">
<defs>
<linearGradient id="linear0" gradientUnits="userSpaceOnUse" x1="130.27" y1="23.87" x2="130.27" y2="275.26" gradientTransform="matrix(0.204544,0,0,0.204717,0,0.0509987)">
<stop offset="0.55" style="stop-color:rgb(72.54902%,12.54902%,14.509804%);stop-opacity:1;"/>
<stop offset="0.88" style="stop-color:rgb(55.686275%,10.196078%,11.372549%);stop-opacity:1;"/>
</linearGradient>
</defs>
<g id="surface1">
<path style=" stroke:none;fill-rule:nonzero;fill:url(#linear0);" d="M 11.3125 19.511719 L 11.3125 12.386719 L 15.503906 12.386719 L 15.503906 15.457031 C 19.089844 11.871094 22.648438 8.292969 26.230469 4.695312 C 32.035156 10.507812 37.847656 16.316406 43.667969 22.125 L 29.582031 36.222656 C 35.339844 41.988281 40.992188 47.753906 46.753906 53.515625 L 6.546875 53.515625 L 6.546875 25.367188 C 14.210938 33.042969 21.613281 40.722656 29.28125 48.386719 L 34.699219 48.386719 C 25.992188 39.679688 17.386719 30.964844 8.671875 22.257812 C 9.582031 21.339844 10.402344 20.425781 11.3125 19.511719 Z M 22.574219 48.339844 L 11.300781 37.054688 L 11.300781 48.339844 Z M 26.277344 33.011719 L 36.964844 22.3125 L 26.234375 11.566406 L 15.558594 22.253906 Z M 26.277344 33.011719 "/>
<path style=" stroke:none;fill-rule:nonzero;fill:rgb(100%,100%,100%);fill-opacity:1;" d="M 79.550781 50.457031 L 79.550781 52.707031 C 79.550781 53.160156 79.183594 53.527344 78.730469 53.527344 L 72.492188 53.527344 L 66.234375 40.628906 L 60.6875 40.628906 L 60.6875 49.648438 L 63.613281 49.648438 C 64.066406 49.648438 64.429688 50.015625 64.429688 50.464844 L 64.429688 52.71875 C 64.429688 53.171875 64.066406 53.539062 63.613281 53.539062 L 53.285156 53.539062 C 52.832031 53.539062 52.464844 53.171875 52.464844 52.71875 L 52.464844 50.464844 C 52.464844 50.015625 52.832031 49.648438 53.285156 49.648438 L 55.585938 49.648438 L 55.585938 27.238281 L 53.28125 27.238281 C 52.828125 27.238281 52.464844 26.871094 52.464844 26.421875 L 52.464844 24.195312 C 52.464844 23.742188 52.828125 23.375 53.28125 23.375 L 67.039062 23.375 C 73.28125 23.375 77.152344 26.804688 77.152344 31.875 C 77.152344 35.609375 74.902344 39.246094 71.660156 40.425781 L 76.46875 49.636719 L 78.730469 49.636719 C 79.183594 49.636719 79.550781 50.003906 79.550781 50.457031 Z M 60.6875 36.625 L 66.757812 36.625 C 69.59375 36.625 71.5 34.714844 71.5 31.875 C 71.5 29.035156 69.546875 27.132812 66.679688 27.132812 L 60.6875 27.132812 Z M 60.6875 36.625 "/>
<path style=" stroke:none;fill-rule:nonzero;fill:rgb(100%,100%,100%);fill-opacity:1;" d="M 100.058594 44.320312 L 86.273438 44.320312 C 86.683594 47.847656 88.640625 50.402344 92.527344 50.3125 C 94.875 50.261719 97.550781 49.066406 99.160156 48.074219 L 99.160156 52.28125 C 97.09375 53.097656 94.679688 54.121094 91.683594 54.121094 C 85.039062 54.121094 80.941406 49.824219 80.941406 42.847656 C 80.941406 35.992188 84.898438 31.449219 91.183594 31.449219 C 96.53125 31.449219 100.058594 35.789062 100.058594 42.277344 Z M 86.273438 40.667969 L 94.703125 40.667969 C 94.972656 37.429688 92.957031 35.234375 90.765625 35.234375 C 88.488281 35.234375 86.425781 37.125 86.273438 40.667969 Z M 86.273438 40.667969 "/>
<path style=" stroke:none;fill-rule:nonzero;fill:rgb(100%,100%,100%);fill-opacity:1;" d="M 124.015625 35.582031 L 122.65625 35.582031 L 116.089844 53.773438 L 110.800781 53.773438 L 104.003906 35.582031 L 102.679688 35.582031 C 102.230469 35.582031 101.863281 35.214844 101.863281 34.761719 L 101.863281 32.664062 C 101.863281 32.210938 102.230469 31.84375 102.679688 31.84375 L 111.050781 31.84375 C 111.5 31.84375 111.867188 32.210938 111.867188 32.664062 L 111.867188 34.761719 C 111.867188 35.214844 111.5 35.582031 111.050781 35.582031 L 109.273438 35.582031 L 113.636719 48.480469 L 117.988281 35.582031 L 116.273438 35.582031 C 115.824219 35.582031 115.457031 35.214844 115.457031 34.761719 L 115.457031 32.664062 C 115.457031 32.210938 115.824219 31.84375 116.273438 31.84375 L 124.011719 31.84375 C 124.464844 31.84375 124.828125 32.210938 124.828125 32.664062 L 124.828125 34.761719 C 124.828125 35.210938 124.464844 35.578125 124.015625 35.582031 Z M 124.015625 35.582031 "/>
<path style=" stroke:none;fill-rule:nonzero;fill:rgb(100%,100%,100%);fill-opacity:1;" d="M 174.925781 50.78125 L 174.925781 52.890625 C 174.925781 53.34375 174.558594 53.710938 174.109375 53.710938 L 167.65625 53.710938 L 167.65625 50.410156 C 166.074219 53.210938 163.914062 54.109375 160.957031 54.109375 C 156.5 54.109375 153.832031 51.1875 153.832031 45.550781 L 153.832031 35.671875 L 151.894531 35.671875 C 151.441406 35.671875 151.078125 35.304688 151.078125 34.851562 L 151.078125 32.664062 C 151.078125 32.210938 151.441406 31.84375 151.894531 31.84375 L 159.210938 31.84375 L 159.210938 44.703125 C 159.210938 47.785156 159.3125 50.289062 162.742188 50.289062 C 165.921875 50.289062 166.867188 47.097656 166.867188 43.609375 L 166.867188 35.671875 L 164.886719 35.671875 C 164.433594 35.671875 164.070312 35.304688 164.070312 34.851562 L 164.070312 32.664062 C 164.070312 32.210938 164.433594 31.84375 164.886719 31.84375 L 172.046875 31.84375 L 172.046875 49.964844 L 174.109375 49.964844 C 174.558594 49.964844 174.925781 50.328125 174.925781 50.78125 Z M 174.925781 50.78125 "/>
<path style=" stroke:none;fill-rule:nonzero;fill:rgb(100%,100%,100%);fill-opacity:1;" d="M 187.523438 50.820312 L 187.523438 52.898438 C 187.523438 53.351562 187.15625 53.71875 186.703125 53.71875 L 178.054688 53.71875 C 177.605469 53.71875 177.238281 53.351562 177.238281 52.898438 L 177.238281 50.820312 C 177.238281 50.367188 177.605469 50 178.054688 50 L 179.898438 50 L 179.898438 35.613281 L 178.175781 35.613281 C 177.722656 35.613281 177.359375 35.246094 177.359375 34.792969 L 177.359375 32.664062 C 177.359375 32.210938 177.722656 31.84375 178.175781 31.84375 L 184.851562 31.84375 L 184.851562 50 L 186.691406 50 C 186.910156 50 187.121094 50.082031 187.277344 50.238281 C 187.433594 50.390625 187.523438 50.601562 187.523438 50.820312 Z M 181.824219 28.710938 C 180.046875 28.683594 178.625 27.214844 178.65625 25.4375 C 178.625 23.65625 180.046875 22.1875 181.824219 22.160156 C 183.605469 22.1875 185.023438 23.65625 184.996094 25.4375 C 185.023438 27.214844 183.605469 28.683594 181.824219 28.710938 Z M 181.824219 28.710938 "/>
<path style=" stroke:none;fill-rule:nonzero;fill:rgb(100%,100%,100%);fill-opacity:1;" d="M 200.359375 50.769531 L 200.359375 52.890625 C 200.359375 53.34375 199.996094 53.710938 199.542969 53.710938 L 190.988281 53.710938 C 190.539062 53.710938 190.171875 53.34375 190.171875 52.890625 L 190.171875 50.769531 C 190.171875 50.316406 190.539062 49.949219 190.988281 49.949219 L 192.765625 49.949219 L 192.765625 25.730469 L 190.988281 25.730469 C 190.539062 25.730469 190.171875 25.363281 190.171875 24.910156 L 190.171875 22.890625 C 190.171875 22.4375 190.539062 22.070312 190.988281 22.070312 L 197.792969 22.070312 L 197.792969 49.949219 L 199.539062 49.949219 C 199.757812 49.949219 199.964844 50.035156 200.121094 50.1875 C 200.273438 50.34375 200.359375 50.550781 200.359375 50.769531 Z M 200.359375 50.769531 "/>
<path style=" stroke:none;fill-rule:nonzero;fill:rgb(100%,100%,100%);fill-opacity:1;" d="M 139.875 31.441406 C 136.871094 31.441406 134.644531 32.542969 133.226562 34.734375 L 133.226562 22.070312 L 126.519531 22.070312 C 126.066406 22.070312 125.699219 22.4375 125.699219 22.890625 L 125.699219 24.9375 C 125.699219 25.386719 126.066406 25.753906 126.519531 25.753906 L 128.25 25.753906 L 128.25 50.058594 L 126.527344 50.058594 C 126.074219 50.058594 125.707031 50.425781 125.707031 50.878906 L 125.707031 52.890625 C 125.707031 53.34375 126.074219 53.710938 126.527344 53.710938 L 132.949219 53.710938 L 132.949219 50.308594 C 134.328125 52.902344 136.558594 54.113281 139.882812 54.113281 C 145.148438 54.113281 148.296875 49.609375 148.296875 42.878906 C 148.292969 35.984375 145.140625 31.441406 139.875 31.441406 Z M 138.128906 50.257812 C 135.210938 50.257812 133.222656 46.734375 133.222656 42.757812 C 133.222656 38.820312 135.207031 35.347656 138.128906 35.347656 C 141.007812 35.347656 142.953125 38.828125 142.953125 42.796875 C 142.953125 46.765625 141.007812 50.257812 138.128906 50.257812 Z M 138.128906 50.257812 "/>
<path style=" stroke:none;fill-rule:nonzero;fill:rgb(100%,100%,100%);fill-opacity:1;" d="M 222.972656 50.058594 L 222.972656 22.070312 L 215.953125 22.070312 C 215.5 22.070312 215.136719 22.4375 215.136719 22.890625 L 215.136719 24.9375 C 215.136719 25.386719 215.5 25.753906 215.953125 25.753906 L 217.988281 25.753906 L 217.988281 34.738281 C 216.566406 32.550781 214.335938 31.445312 211.339844 31.445312 C 206.070312 31.445312 202.925781 35.988281 202.925781 42.882812 C 202.925781 49.617188 206.070312 54.121094 211.339844 54.121094 C 214.664062 54.121094 216.894531 52.910156 218.273438 50.3125 L 218.273438 53.714844 L 224.695312 53.714844 C 225.144531 53.714844 225.511719 53.347656 225.511719 52.898438 L 225.511719 50.882812 C 225.511719 50.433594 225.144531 50.066406 224.695312 50.066406 Z M 213.082031 50.265625 C 210.203125 50.265625 208.257812 46.785156 208.257812 42.804688 C 208.257812 38.824219 210.203125 35.355469 213.082031 35.355469 C 216 35.355469 217.992188 38.835938 217.992188 42.761719 C 217.988281 46.726562 216 50.257812 213.082031 50.257812 Z M 213.082031 50.265625 "/>
</g>
</svg>