<?xml version="1.0" encoding="UTF-8"?>
<svg xmlns="http://www.w3.org/2000/svg" xmlns:xlink="http://www.w3.org/1999/xlink" width="20px" height="14px" viewBox="0 0 20 14" version="1.1">
<g id="surface1">
<path style=" stroke:none;fill-rule:nonzero;fill:rgb(85.490196%,14.509804%,11.372549%);fill-opacity:1;" d="M 1.152344 0 L 18.84375 0 C 19.441406 0.00390625 19.929688 0.5 19.929688 1.105469 L 19.929688 12.890625 C 19.929688 13.496094 19.441406 13.992188 18.84375 13.996094 L 1.152344 13.996094 C 0.554688 13.996094 0.0664062 13.5 0.0664062 12.894531 L 0.0664062 1.105469 C 0.0664062 0.5 0.554688 0.00390625 1.152344 0 Z M 1.152344 0 "/>
<path style=" stroke:none;fill-rule:nonzero;fill:rgb(100%,100%,0%);fill-opacity:1;" d="M 10 4.199219 L 9.148438 6.863281 L 10.898438 7.4375 Z M 10 4.199219 Z M 10 4.199219 "/>
<path style=" stroke:none;fill-rule:nonzero;fill:rgb(100%,100%,0%);fill-opacity:1;" d="M 10 4.199219 L 10.851562 6.863281 L 9.101562 7.4375 Z M 10 4.199219 Z M 10 4.199219 "/>
<path style=" stroke:none;fill-rule:nonzero;fill:rgb(100%,100%,0%);fill-opacity:1;" d="M 12.625 6.136719 L 9.863281 6.136719 L 9.863281 8.003906 Z M 12.625 6.136719 Z M 12.625 6.136719 "/>
<path style=" stroke:none;fill-rule:nonzero;fill:rgb(100%,100%,0%);fill-opacity:1;" d="M 12.625 6.136719 L 10.390625 7.78125 L 9.308594 6.269531 Z M 12.625 6.136719 Z M 12.625 6.136719 "/>
<path style=" stroke:none;fill-rule:nonzero;fill:rgb(100%,100%,0%);fill-opacity:1;" d="M 11.621094 9.265625 L 10.769531 6.601562 L 9.019531 7.179688 Z M 11.621094 9.265625 Z M 11.621094 9.265625 "/>
<path style=" stroke:none;fill-rule:nonzero;fill:rgb(100%,100%,0%);fill-opacity:1;" d="M 11.621094 9.265625 L 9.386719 7.621094 L 10.472656 6.109375 Z M 11.621094 9.265625 Z M 11.621094 9.265625 "/>
<path style=" stroke:none;fill-rule:nonzero;fill:rgb(100%,100%,0%);fill-opacity:1;" d="M 7.375 6.136719 L 10.136719 6.136719 L 10.136719 8.003906 Z M 7.375 6.136719 Z M 7.375 6.136719 "/>
<path style=" stroke:none;fill-rule:nonzero;fill:rgb(100%,100%,0%);fill-opacity:1;" d="M 7.375 6.136719 L 9.609375 7.78125 L 10.691406 6.269531 Z M 7.375 6.136719 Z M 7.375 6.136719 "/>
<path style=" stroke:none;fill-rule:nonzero;fill:rgb(100%,100%,0%);fill-opacity:1;" d="M 8.378906 9.265625 L 9.230469 6.601562 L 10.980469 7.179688 Z M 8.378906 9.265625 Z M 8.378906 9.265625 "/>
<path style=" stroke:none;fill-rule:nonzero;fill:rgb(100%,100%,0%);fill-opacity:1;" d="M 8.378906 9.265625 L 10.613281 7.621094 L 9.527344 6.109375 Z M 8.378906 9.265625 Z M 8.378906 9.265625 "/>
</g>
</svg>
