<?xml version="1.0" encoding="UTF-8"?>
<svg xmlns="http://www.w3.org/2000/svg" xmlns:xlink="http://www.w3.org/1999/xlink" width="20px" height="px" viewBox="0 0 20 20" version="1.1">
<g id="surface1">
<path style=" stroke:none;fill-rule:nonzero;fill:rgb(100%,100%,100%);fill-opacity:1;" d="M 16.09375 5.972656 C 14.097656 2.953125 10.1875 1.851562 6.90625 3.386719 C 3.625 4.925781 1.96875 8.632812 3.011719 12.101562 C 4.054688 15.570312 7.480469 17.75 11.066406 17.222656 C 14.648438 16.695312 17.304688 13.621094 17.304688 10 C 17.304688 8.566406 16.882812 7.167969 16.09375 5.972656 Z M 6.902344 6.890625 C 7.839844 7 8.78125 7.058594 9.726562 7.066406 L 9.726562 9.726562 L 6.507812 9.726562 C 6.523438 8.769531 6.65625 7.816406 6.902344 6.890625 Z M 10.273438 7.0625 C 11.21875 7.058594 12.164062 7 13.101562 6.894531 C 13.347656 7.820312 13.476562 8.769531 13.492188 9.726562 L 10.273438 9.726562 Z M 10.273438 6.515625 L 10.273438 3.265625 C 11.351562 3.433594 12.339844 4.578125 12.9375 6.359375 C 12.070312 6.453125 11.179688 6.507812 10.273438 6.515625 Z M 6.902344 13.109375 C 6.746094 12.535156 6.636719 11.945312 6.574219 11.355469 C 6.535156 11 6.511719 10.636719 6.503906 10.273438 L 9.726562 10.273438 L 9.726562 12.9375 C 9.34375 12.941406 8.960938 12.949219 8.585938 12.96875 C 8.015625 12.996094 7.453125 13.046875 6.902344 13.109375 Z M 8.613281 13.515625 C 8.980469 13.496094 9.355469 13.484375 9.726562 13.480469 L 9.726562 16.738281 C 8.988281 16.621094 8.28125 16.042969 7.707031 15.078125 C 7.441406 14.621094 7.226562 14.140625 7.058594 13.636719 C 7.570312 13.582031 8.089844 13.539062 8.613281 13.515625 Z M 10.273438 10.273438 L 13.496094 10.273438 C 13.476562 11.230469 13.34375 12.183594 13.097656 13.109375 C 12.160156 13.003906 11.21875 12.945312 10.273438 12.9375 Z M 14.039062 9.726562 C 14.023438 8.746094 13.890625 7.773438 13.648438 6.824219 C 14.351562 6.730469 15.050781 6.601562 15.742188 6.4375 C 16.355469 7.425781 16.703125 8.5625 16.75 9.726562 Z M 15.40625 5.949219 C 14.804688 6.089844 14.160156 6.203125 13.488281 6.292969 C 13.097656 5.085938 12.53125 4.128906 11.859375 3.503906 C 13.277344 3.910156 14.523438 4.769531 15.40625 5.949219 Z M 9.726562 3.265625 L 9.726562 6.515625 C 8.820312 6.507812 7.929688 6.453125 7.0625 6.359375 C 7.660156 4.578125 8.648438 3.433594 9.726562 3.265625 Z M 8.140625 3.5 C 7.46875 4.121094 6.902344 5.082031 6.511719 6.292969 C 5.839844 6.203125 5.195312 6.089844 4.59375 5.949219 C 5.476562 4.769531 6.722656 3.90625 8.140625 3.5 Z M 4.257812 6.4375 C 4.949219 6.601562 5.648438 6.730469 6.351562 6.824219 C 6.105469 7.773438 5.972656 8.746094 5.957031 9.726562 L 3.246094 9.726562 C 3.292969 8.5625 3.640625 7.425781 4.257812 6.4375 Z M 5.957031 10.273438 C 5.964844 10.65625 5.988281 11.039062 6.027344 11.410156 C 6.09375 12.007812 6.199219 12.59375 6.351562 13.175781 C 6.148438 13.203125 5.949219 13.230469 5.753906 13.265625 C 5.234375 13.347656 4.734375 13.449219 4.257812 13.5625 C 3.640625 12.574219 3.292969 11.4375 3.246094 10.273438 Z M 4.589844 14.046875 C 4.992188 13.957031 5.410156 13.875 5.839844 13.804688 C 6.058594 13.769531 6.285156 13.734375 6.511719 13.707031 C 6.691406 14.28125 6.933594 14.835938 7.238281 15.359375 C 7.480469 15.777344 7.78125 16.160156 8.128906 16.492188 C 6.714844 16.085938 5.472656 15.226562 4.589844 14.046875 Z M 10.273438 16.734375 L 10.273438 13.484375 C 11.179688 13.492188 12.070312 13.546875 12.9375 13.640625 C 12.339844 15.421875 11.351562 16.566406 10.273438 16.734375 Z M 11.859375 16.5 C 12.53125 15.875 13.101562 14.917969 13.492188 13.703125 C 14.164062 13.792969 14.808594 13.910156 15.410156 14.046875 C 14.527344 15.230469 13.277344 16.09375 11.859375 16.5 Z M 15.734375 13.566406 C 15.046875 13.402344 14.347656 13.269531 13.648438 13.175781 C 13.890625 12.226562 14.023438 11.253906 14.039062 10.273438 L 16.753906 10.273438 C 16.707031 11.441406 16.355469 12.574219 15.734375 13.566406 Z M 15.734375 13.566406 "/>
</g>
</svg>
