<svg xmlns="http://www.w3.org/2000/svg" id="Layer_2" data-name="Layer 2" viewBox="2 4 1080.14 242.45"><defs><style>.cls-1{fill:#fff;}</style></defs><path class="cls-1" d="M25.37,76.32V41.52H45.85v15C63.38,39,80.77,21.52,98.3,4q42.56,42.57,85.25,85.13L114.68,158c28.16,28.16,55.79,56.32,83.95,84.48H2V104.94c37.48,37.48,73.66,75,111.14,112.45h26.51C97.13,174.84,55,132.29,12.46,89.74,16.91,85.27,20.92,80.79,25.37,76.32ZM80.43,217.14,25.3,162v55.12Zm18.09-74.91Q124.65,116.1,150.77,90L98.32,37.53l-52.2,52.2Z"/><path class="cls-1" d="M368.54,228.54v11a4,4,0,0,1-4,4H334l-30.61-63H276.32v44h14.3a4,4,0,0,1,4,4v11a4,4,0,0,1-4,4h-50.5a4,4,0,0,1-4-4v-11a4,4,0,0,1,4-4h11.25V115.13H240.12a4,4,0,0,1-4-4V100.26a4,4,0,0,1,4-4h67.26c30.52,0,49.45,16.75,49.45,41.52,0,18.23-11,36-26.85,41.76l23.5,45h11.06A4,4,0,0,1,368.54,228.54ZM276.32,161H306c13.87,0,23.18-9.32,23.18-23.19s-9.51-23.18-23.58-23.18H276.32Z"/><path class="cls-1" d="M468.8,198.56H401.41c2,17.24,11.58,29.72,30.57,29.28,11.49-.26,24.57-6.08,32.43-10.94v20.55c-10.11,4-21.89,9-36.55,9-32.49,0-52.51-21-52.51-55.08,0-33.49,19.35-55.68,50.06-55.68,26.15,0,43.39,21.2,43.39,52.9Zm-67.39-17.83h41.18c1.31-15.83-8.55-26.54-19.25-26.54C412.24,154.19,402.15,163.42,401.41,180.73Z"/><path class="cls-1" d="M585.94,155.88h-6.66l-32.1,88.86H521.33L488.1,155.88h-6.44a4,4,0,0,1-4-4V141.63a4,4,0,0,1,4-4h40.91a4,4,0,0,1,4,4v10.25a4,4,0,0,1-4,4h-8.68l21.33,63,21.28-63h-8.38a4,4,0,0,1-4-4V141.63a4,4,0,0,1,4-4h37.82a4,4,0,0,1,4,4v10.25A4,4,0,0,1,585.94,155.88Z"/><path class="cls-1" d="M834.83,230.13v10.3a4,4,0,0,1-4,4H799.29V228.35C791.56,242,781,246.41,766.54,246.41c-21.8,0-34.83-14.27-34.83-41.81V156.3h-9.48a4,4,0,0,1-4-4V141.63a4,4,0,0,1,4-4H758v62.81c0,15.06.51,27.29,17.28,27.29,15.54,0,20.15-15.6,20.15-32.64V156.3h-9.68a4,4,0,0,1-4-4V141.63a4,4,0,0,1,4-4h35v88.5h10.12A4,4,0,0,1,834.83,230.13Z"/><path class="cls-1" d="M896.41,230.28v10.15a4,4,0,0,1-4,4H850.13a4,4,0,0,1-4-4V230.28a4,4,0,0,1,4-4h9V156h-8.41a4,4,0,0,1-4-4v-10.4a4,4,0,0,1,4-4h32.63v88.65h9A4,4,0,0,1,896.41,230.28Zm-27.85-108h0a15.75,15.75,0,0,1-15.5-16h0a15.75,15.75,0,0,1,15.5-16h0a15.75,15.75,0,0,1,15.5,16h0A15.75,15.75,0,0,1,868.56,122.32Z"/><path class="cls-1" d="M959.18,230.07v10.36a4,4,0,0,1-4,4H913.36a4,4,0,0,1-4-4V230.07a4,4,0,0,1,4-4H922V107.76h-8.68a4,4,0,0,1-4-4V93.88a4,4,0,0,1,4-4h33.29V226.07h8.53A4,4,0,0,1,959.18,230.07Z"/><path class="cls-1" d="M663.46,135.65c-14.67,0-25.56,5.39-32.5,16.09V89.88H598.17a4,4,0,0,0-4,4v10a4,4,0,0,0,4,4h8.42V226.6h-8.42a4,4,0,0,0-4,4v9.83a4,4,0,0,0,4,4h31.39V227.81c6.74,12.68,17.65,18.6,33.9,18.6,25.75,0,41.14-22,41.14-54.89C704.6,157.84,689.21,135.65,663.46,135.65Zm-8.52,91.92c-14.27,0-24-17.22-24-36.64,0-19.22,9.71-36.19,24-36.19,14.06,0,23.57,17,23.57,36.39S669,227.57,654.94,227.57Z"/><path class="cls-1" d="M1069.72,226.6V89.88h-34.31a4,4,0,0,0-4,4v10a4,4,0,0,0,4,4h9.94v43.89c-6.94-10.7-17.84-16.09-32.5-16.09-25.76,0-41.14,22.19-41.14,55.87,0,32.89,15.38,54.89,41.14,54.89,16.25,0,27.16-5.92,33.9-18.6v16.62h31.39a4,4,0,0,0,4-4V230.6a4,4,0,0,0-4-4Zm-48.35,1c-14.07,0-23.58-17-23.58-36.44s9.51-36.39,23.58-36.39c14.27,0,24,17,24,36.19C1045.35,210.35,1035.64,227.57,1021.37,227.57Z"/></svg>